SplineFontDB: 1.0
FontName: MnSymbolS-Bold5
FullName: MnSymbolS-Bold5
FamilyName: MnSymbolS-Bold5
Weight: Regular
Copyright: Generated from MetaFont bitmap by mftrace 1.1.17, http://www.xs4all.nl/~hanwen/mftrace/ 
Version: 001.001
ItalicAngle: 0
UnderlinePosition: -100
UnderlineWidth: 50
Ascent: 800
Descent: 200
NeedsXUIDChange: 1
UniqueID: 4245733
OS2TypoAscent: 0
OS2TypoAOffset: 1
OS2TypoDescent: 0
OS2TypoDOffset: 1
OS2TypoLinegap: 0
OS2WinAscent: 0
OS2WinAOffset: 1
OS2WinDescent: 0
OS2WinDOffset: 1
HheadAscent: 0
HheadAOffset: 1
HheadDescent: 0
HheadDOffset: 1
OS2Vendor: 'PfEd'
Encoding: Custom
UnicodeInterp: none
NameList: Adobe Glyph List
DisplaySize: -24
AntiAlias: 1
FitToEm: 1
WinInfo: 54 18 9
BeginPrivate: 3
lenIV 1 4
BlueValues 2 []
ForceBold 5 false
EndPrivate
BeginChars: 256 28
StartChar: A
Encoding: 65 65 2
Width: 1228
Flags: HMW
Back
200.192 120.189 m 0
 207.725 114.481 216.499 109.696 226.225 106.156 c 0
 235.382 102.823 245.378 100.59 255.935 99.6045 c 0
 316.684 93.9346 426.471 226.104 461.081 265.088 c 0
 565.264 382.437 657.329 506.926 735.856 635.854 c 1
 848.258 635.854 l 1
 848.087 635.549 l 2
 751.045 462.841 634.177 299.628 500.959 149.575 c 0
 404.734 41.1895 303.105 -67.5723 212.814 -59.1455 c 0
 197.671 -57.7324 183.188 -54.5322 169.545 -49.5664 c 0
 155.054 -44.292 141.505 -37.0303 129.149 -27.666 c 0
 95.5088 -2.16699 88.7959 17.9834 82.3955 34.2148 c 0
 70.3154 64.8506 84.2031 116.455 110.979 146.601 c 0
 137.756 176.747 167.853 174.689 179.411 143.439 c 0
 181.924 136.647 188.453 129.088 200.192 120.189 c 0
1022.48 241.429 m 0
 1034.37 191.722 1051.69 144.567 1074.14 100.679 c 0
 1074.31 100.352 1074.84 99.3838 1075.02 99.0664 c 0
 1083.25 84.8008 1097.56 82.4727 1102.4 83.8555 c 0
 1102.41 83.8564 1101.39 83.4258 1101.53 83.4932 c 2
 1145.56 105.71 l 2
 1186.26 126.243 1226.57 122.943 1235.54 98.3438 c 0
 1244.52 73.7451 1218.77 37.1152 1178.07 16.5811 c 2
 1134.03 -5.63574 l 2
 1120.39 -12.5176 1105.69 -18.7822 1087.29 -24.0342 c 0
 1035.62 -38.7803 962.701 -37.8242 931.506 16.209 c 0
 931.052 16.9941 929.752 19.3857 929.338 20.1934 c 0
 904.897 67.9678 886.079 119.202 873.165 173.234 c 0
 835.144 332.312 809.468 496.566 796.322 664.857 c 0
 794.163 692.498 826.188 728.087 867.809 744.296 c 0
 909.428 760.506 944.959 751.228 947.118 723.587 c 0
 960.007 558.581 985.188 397.472 1022.48 241.429 c 0
522.197 149.332 m 2
 485.234 149.332 470.798 175.316 489.974 207.332 c 0
 509.148 239.348 554.709 265.332 591.672 265.332 c 2
 982.562 265.331 l 2
 1019.52 265.331 1033.96 239.347 1014.79 207.331 c 0
 995.61 175.315 950.05 149.331 913.087 149.331 c 2
 522.197 149.332 l 2
EndSplineSet
Fore
853 265 m 1
 833 363 817 462 806 563 c 1
 744 460 674 360 598 265 c 1
 853 265 l 1
947 724 m 0
 965.383 490.673 1014.68 204.063 1075 99 c 0
 1083.03 85.0166 1097 83 1102 84 c 1
 1146 106 l 2
 1186 126 1227 123 1236 98 c 0
 1245 74 1219 37 1178 17 c 2
 1134 -6 l 2
 1063 -42 964 -48 929 20 c 0
 909 61 892 104 879 149 c 1
 522 149 l 2
 515 149 509 150 503 152 c 1
 454.528 103.528 324.139 -69.9347 213 -59 c 0
 182.005 -55.9505 112 -41 82 34 c 0
 70 65 84 116 111 147 c 0
 138 177 168 175 179 143 c 0
 184 131 211.02 104.211 256 100 c 0
 317.027 94.2865 426 226 461 265 c 0
 565 382 657 507 736 636 c 1
 799 636 l 1
 796 665 l 2
 794 692 826 728 868 744 c 0
 909 761 944.873 750.99 947 724 c 0
EndSplineSet
EndChar
StartChar: B
Encoding: 66 66 3
Width: 993
Flags: HMW
Back
170.163 204.562 m 0
 199.363 321.362 219.344 438.075 229.9 553.572 c 1
 202.927 539.964 l 2
 162.229 519.43 121.916 522.73 112.943 547.33 c 0
 103.971 571.93 129.719 608.56 170.417 629.093 c 2
 294.264 691.577 l 2
 318.303 703.705 340.145 707.786 359.012 703.676 c 0
 377.878 699.565 386.968 688.745 385.954 671.601 c 0
 377.52 528.86 354.986 383.762 318.583 238.149 c 0
 301.231 168.739 268.811 99.0928 221.734 33.167 c 0
 198.967 1.28223 152.158 -22.0146 117.252 -18.834 c 0
 82.3447 -15.6533 72.4941 12.8057 95.2617 44.6904 c 0
 129.817 93.082 156.009 147.945 170.163 204.562 c 0
540.942 96.9785 m 0
 631.308 96.9785 695.709 110.597 728.93 127.755 c 0
 729.354 127.974 679.77 99.2373 733.153 130.059 c 0
 750.028 139.801 758.421 152.835 763.81 174.388 c 0
 772.521 209.234 766.783 235.618 755.737 254.75 c 0
 719.371 317.739 601.925 343.713 464.709 320.54 c 0
 426.034 314.009 403.912 329.262 409.799 358.399 c 0
 415.687 387.537 446.685 416.213 486.739 429.575 c 0
 601.651 467.912 726.145 510.525 779.797 541.501 c 0
 798.964 552.567 771.46 522.321 771.46 522.323 c 0
 775.729 539.399 772.533 552.22 767.109 561.613 c 0
 750.579 590.246 701.596 603.291 650.365 591.525 c 0
 621.13 584.812 586.122 572.778 548.589 551.108 c 0
 449.644 493.982 354.209 380.654 318.584 238.149 c 0
 310.915 207.477 271.445 175.06 230.481 165.789 c 0
 189.518 156.519 162.495 173.89 170.163 204.562 c 0
 210.451 365.719 328.085 532.233 501.637 632.433 c 0
 566.515 669.889 627.028 690.921 677.443 702.499 c 0
 785.551 727.326 877.254 702.267 910.623 644.471 c 0
 926.888 616.299 927.091 584.754 919.881 555.911 c 0
 908.091 508.751 847.879 472.377 826.749 460.177 c 0
 808.714 449.766 788.394 439.453 764.186 428.568 c 1
 824.789 412.038 873.367 382.439 899.251 337.606 c 0
 917.064 306.751 926.281 264.182 912.229 207.975 c 0
 905.375 180.556 880.934 106.946 780.105 48.7344 c 0
 766.76 41.0293 767.163 41.5674 763.888 39.875 c 0
 711.469 12.8018 622.708 -19.1191 471.409 -19.1201 c 0
 397.226 -19.1201 327.531 -7.97656 264.06 13.3594 c 0
 234.756 23.21 235.024 55.9512 264.658 86.4424 c 0
 294.293 116.934 342.126 133.687 371.429 123.836 c 0
 424.97 105.839 482.32 96.9785 540.942 96.9785 c 0
EndSplineSet
Fore
541 97 m 0
 631 97 696 111 729 128 c 2
 729 128 679 99 733 130 c 0
 773 153 776 219 756 255 c 0
 719 318 602 344 465 321 c 0
 426 314 404.096 328.98 410 358 c 0
 416.099 387.98 447 416 487 430 c 0
 597 466 717 507 773 538 c 1
 773 597 676.191 624.67 549 551 c 0
 450.148 493.744 354 381 319 238 c 0
 301 169 269 99 222 33 c 0
 199 1 152 -22 117 -19 c 0
 82 -16 72 13 95 45 c 0
 129.671 93.2381 155.882 148.029 170 205 c 0
 198.76 321.059 219 438 230 554 c 1
 203 540 l 2
 162 519 122 523 113 547 c 0
 104 572 130.129 608.743 170 629 c 2
 294 692 l 2
 346 718 388 704 386 672 c 0
 383 627 379 583 374 538 c 1
 460 617 564 676 677 702 c 0
 786 727 877 702 911 644 c 0
 927 616 927 585 920 556 c 0
 912 525 882 481 764 429 c 1
 995 366 948 135 764 40 c 0
 711 13 623 -19 471 -19 c 0
 397 -19 328 -8 264 13 c 0
 235 23 235 56 265 86 c 0
 294 117 342 134 371 124 c 0
 425 106 482 97 541 97 c 0
EndSplineSet
EndChar
StartChar: C
Encoding: 67 67 4
Width: 849
Flags: HMW
Back
605.078 531.176 m 0
 613.899 549.62 613.871 561.979 606.444 574.842 c 0
 601.984 582.567 595.748 585.816 591.483 586.646 c 0
 583.352 588.23 575.225 588.963 567.324 588.963 c 0
 473.919 588.963 401.785 568.236 352.649 539.868 c 0
 282.977 499.643 242.933 433.936 224.39 359.765 c 0
 209.812 301.456 217.567 247.066 242.99 203.031 c 0
 279.997 138.933 347.895 104.593 417.57 96.5303 c 0
 488.221 88.3555 560.102 106.241 622.687 142.374 c 0
 636.022 150.074 649.185 158.729 662.175 168.446 c 0
 698.268 195.446 744.472 203.354 765.309 186.1 c 0
 786.146 168.844 773.764 132.926 737.671 105.926 c 0
 715.848 89.5996 693.061 74.5732 669.638 61.0498 c 0
 554.525 -5.41016 434.513 -30.54 331.957 -18.6729 c 0
 208.323 -4.36719 134.793 59.0049 99.4775 120.174 c 0
 67.0479 176.345 56.0479 246.493 75.9688 326.178 c 0
 85.9443 366.08 125.672 517.256 305.697 621.191 c 0
 419.572 686.938 541.104 705.062 636.858 705.062 c 0
 654.277 705.062 670.712 703.459 686.104 700.461 c 0
 720.326 693.798 739.648 675.556 749.958 657.699 c 0
 780.192 605.331 748.913 550.004 742.419 536.974 c 0
 731.55 515.165 716.716 493.499 700.772 472.382 c 0
 676.8 440.628 629.676 418.339 595.585 422.631 c 0
 561.495 426.923 553.284 456.178 577.258 487.933 c 0
 587.485 501.48 597.837 516.036 605.078 531.176 c 0
EndSplineSet
Fore
577 488 m 0
 608.681 530.241 619 554 606 575 c 0
 600 586 591 589 567 589 c 0
 415 589 269 538 224 360 c 0
 189 217 287 112 418 97 c 0
 504 86 592 116 662 168 c 0
 698.123 194.835 744 203 765 186 c 0
 786 169 774 133 738 106 c 0
 490 -79 199 -52 99 120 c 0
 19 260 88.2615 495.546 306 621 c 0
 420.137 686.762 541 705 637 705 c 0
 688 705 729 695 750 658 c 0
 785 598 743 528 701 472 c 0
 677 441 630 418 596 423 c 0
 561 427 553 456 577 488 c 0
EndSplineSet
EndChar
StartChar: D
Encoding: 68 68 5
Width: 1195
Flags: HMW
Back
385.274 326.177 m 0
 408.312 418.325 418.347 510.429 414.894 599.507 c 0
 413.806 627.556 446.735 662.894 488.397 678.386 c 0
 530.059 693.879 564.753 683.688 565.841 655.639 c 0
 569.56 559.703 558.802 460.19 533.695 359.765 c 0
 508.589 259.34 469.386 158.99 416.803 61.3896 c 0
 399.562 29.3896 354.777 2.06543 316.835 0.398438 c 0
 278.892 -1.26953 262.09 23.3477 279.33 55.3477 c 0
 326.425 142.762 362.237 234.027 385.274 326.177 c 0
467.185 116.418 m 2
 655.767 116.418 805.072 145.324 891.818 195.406 c 0
 941.853 224.294 979.397 265.692 995.94 331.866 c 0
 1006.53 374.218 1010.63 422.429 986.938 463.469 c 0
 939.152 546.237 794.531 569.523 585.501 569.523 c 2
 455.601 569.523 l 2
 418.606 569.523 404.157 595.529 423.349 627.572 c 0
 442.54 659.616 488.14 685.622 525.134 685.622 c 2
 655.035 685.622 l 2
 851.452 685.622 1059.78 668.738 1130.45 546.325 c 0
 1163.17 489.654 1158.95 423.826 1144.36 365.453 c 0
 1117.39 257.549 1041.7 173.508 938.771 114.082 c 0
 847.75 61.5322 686.755 0.319336 397.651 0.319336 c 2
 237.386 0.319336 l 2
 200.392 0.319336 185.942 26.3252 205.134 58.3682 c 0
 224.325 90.4111 269.925 116.418 306.919 116.418 c 2
 467.185 116.418 l 2
229.458 541.41 m 0
 227.867 540.492 214.899 534.225 207.722 505.514 c 0
 200.053 474.841 160.583 442.424 119.619 433.153 c 0
 78.6553 423.884 51.6328 441.254 59.3008 471.927 c 0
 65.8154 497.986 87.8828 568.104 182.506 622.734 c 0
 198.825 632.156 215.254 639.868 231.294 646.242 c 0
 336.812 688.17 471.547 685.622 525.134 685.622 c 0
 562.128 685.622 576.576 659.616 557.385 627.573 c 0
 538.194 595.529 492.595 569.523 455.601 569.523 c 0
 353.511 569.523 282.644 563.382 240.853 546.776 c 0
 235.651 544.71 231.947 542.848 229.458 541.41 c 0
EndSplineSet
Fore
398 0 m 2
 237 0 l 2
 200 0 186 26 205 58 c 0
 224 90 270 116 307 116 c 2
 310 116 l 1
 369 242 416 398 416 569 c 1
 225.753 564.576 216.512 538.985 208 506 c 0
 200 475 161 442 120 433 c 0
 79 424 52 441 59 472 c 0
 80 554 148.034 612.914 231 646 c 0
 336.044 687.891 470 686 524 686 c 2
 655 686 l 2
 932 686 1215 650 1144 365 c 0
 1118 262 996 0 398 0 c 2
467 116 m 2
 656 116 805 145 892 195 c 0
 1015 266 1019 407 987 463 c 0
 939 546 795 570 586 570 c 2
 565 570 l 1
 557 399 506 243 445 116 c 1
 467 116 l 2
EndSplineSet
EndChar
StartChar: E
Encoding: 69 69 6
Width: 828
Flags: HMW
Back
632.469 576.027 m 0
 629.205 581.681 622.273 585.813 615.568 586.246 c 0
 587.441 588.059 559.082 588.963 530.537 588.963 c 0
 450.227 588.963 404.554 575.893 385.36 568.326 c 0
 381.709 566.887 386.347 568.924 379.752 565.973 c 0
 373.774 563.298 386.611 569.605 375.138 563.776 c 0
 373.661 563.025 375.922 564.363 371.482 561.801 c 0
 367.158 559.304 355.933 553.381 349.82 528.935 c 0
 346.355 515.075 345.73 499.688 353.491 486.246 c 0
 374.014 450.699 445.789 435.319 565.085 435.319 c 0
 602.079 435.318 616.527 409.312 597.336 377.27 c 0
 578.145 345.227 532.545 319.221 495.551 319.221 c 0
 388.095 319.221 253.113 328.676 209.978 403.389 c 0
 193.192 432.463 193.93 465.468 201.4 495.348 c 0
 207.755 520.769 230.729 588.969 324.53 643.125 c 0
 336.166 649.842 338.392 650.754 341.903 652.538 c 0
 353.376 658.367 355.768 659.258 359.26 660.82 c 0
 370.468 665.836 373.035 666.701 376.488 668.062 c 0
 456.146 699.467 540.68 705.062 600.07 705.062 c 0
 631.884 705.062 663.377 704.054 694.505 702.047 c 0
 736.997 699.308 764.233 679.234 775.982 658.885 c 0
 782.644 647.347 786.277 633.816 784.925 617.543 c 0
 783.583 601.401 776.979 581.869 761.207 560.771 c 0
 737.448 528.99 690.377 506.519 656.137 510.61 c 0
 621.896 514.702 613.39 543.816 637.147 575.598 c 1
 635.299 573.124 634.22 570.622 634.184 570.185 c 1
 634.323 571.867 633.739 573.826 632.469 576.027 c 0
296.201 274.991 m 0
 264.473 256.674 241.461 231.606 231.323 191.057 c 0
 227.895 177.341 227.601 162.203 235.31 148.851 c 0
 254.958 114.817 321.787 96.9785 422.399 96.9785 c 0
 515.035 96.9785 583.8 134.938 607.84 148.817 c 0
 619.25 155.405 630.528 162.63 641.675 170.538 c 0
 678.637 196.765 724.26 203.108 743.512 184.698 c 0
 762.765 166.287 748.391 130.061 711.429 103.834 c 0
 693.08 90.8154 674.146 78.667 654.791 67.4932 c 0
 549.212 6.53711 443.642 -19.1201 352.866 -19.1201 c 0
 169.282 -19.1201 112.221 30.6172 91.7959 65.9932 c 0
 75.0625 94.9766 75.4688 127.733 82.9023 157.47 c 0
 103.525 239.962 166.859 308.748 249.249 356.315 c 0
 357.684 418.92 479.83 435.318 565.084 435.319 c 0
 602.078 435.319 616.527 409.312 597.336 377.27 c 0
 578.145 345.227 532.545 319.221 495.551 319.221 c 0
 408.855 319.221 337.559 298.869 296.201 274.991 c 0
EndSplineSet
Fore
296 275 m 0
 233 239 220 176 235 149 c 0
 255 115 322 97 422 97 c 0
 525 97 603 143 642 171 c 0
 679 197 724 203 744 185 c 0
 763 166 747.87 130.183 711 104 c 0
 625.699 43.4237 496 -19 353 -19 c 0
 139 -19 56 49 83 157 c 0
 104 241 168 311 256 360 c 1
 236 371 220 385 210 403 c 0
 176 462 203 600 376 668 c 0
 456 699 541 705 600 705 c 0
 695 705 750 704 776 659 c 0
 791 632 788 597 761 561 c 0
 737 529 690 507 656 511 c 0
 624 515 614 541 634 571 c 1
 632 574 625 586 616 586 c 0
 587 588 559 589 531 589 c 0
 450 589 396 576 371 562 c 0
 349 549 340 509 353 486 c 0
 374 451 446 435 565 435 c 0
 602 435 617 409 597 377 c 0
 578 345 533 319 496 319 c 0
 409 319 338 299 296 275 c 0
EndSplineSet
EndChar
StartChar: F
Encoding: 70 70 7
Width: 1066
Flags: HMW
Back
316.078 83.3604 m 0
 322.661 83.6094 325.396 85.4688 327.082 86.4414 c 0
 330.251 88.2715 336.882 92.5762 346.111 103.088 c 0
 348.289 105.568 352.241 110.381 355.912 115.75 c 0
 401.419 182.297 440.457 252.544 471.924 325.043 c 0
 511.715 416.722 537.35 511.357 547.324 604.809 c 0
 550.471 634.284 586.751 668.406 628.308 680.972 c 0
 669.864 693.538 701.038 679.814 697.892 650.338 c 0
 686.994 548.236 658.979 444.065 614.444 341.458 c 0
 579.655 261.302 536.138 182.765 484.486 107.233 c 0
 475.841 94.5908 468.173 85.0527 460.061 75.8135 c 0
 437.563 50.1885 408.98 25.2939 374.033 5.11719 c 0
 331.067 -19.6885 288.64 -31.2578 252.604 -32.6221 c 0
 177.44 -35.4678 112.524 -17.1211 62.126 18.1523 c 0
 39.4736 34.0078 49.4805 69.4746 84.4619 97.3203 c 0
 119.444 125.166 166.22 134.898 188.872 119.044 c 0
 226.435 92.7529 272.157 81.6973 316.078 83.3604 c 0
1013.78 577.317 m 0
 1013.67 577.51 1028.27 565.943 1028.27 565.943 c 0
 1014.31 569.46 957.633 569.523 913.825 569.523 c 2
 507.602 569.523 l 2
 449.564 569.523 405.261 559.448 380.489 549.467 c 0
 371.242 545.74 385.137 551.733 374.704 546.993 c 0
 368.742 544.284 380.539 550.13 369.778 544.62 c 0
 369.712 544.586 409.66 567.786 365.69 542.4 c 0
 358.9 538.48 346.182 530.39 339.963 505.515 c 0
 332.295 474.842 292.825 442.424 251.86 433.153 c 0
 210.896 423.884 183.874 441.254 191.542 471.927 c 0
 198.062 498.005 222.062 567.908 318.738 623.725 c 0
 329.73 630.07 332.29 631.206 335.722 632.963 c 0
 346.482 638.473 349.317 639.622 352.741 641.178 c 0
 363.175 645.919 366.3 647.069 369.7 648.439 c 0
 450.736 681.093 531.087 685.622 577.136 685.622 c 2
 983.358 685.622 l 2
 1058.33 685.622 1103.77 684.738 1128.52 678.505 c 0
 1139.62 675.71 1151.24 670.656 1157.29 660.174 c 0
 1159.68 656.037 1161.37 639.779 1159.95 634.131 c 0
 1152.28 603.456 1112.81 571.041 1071.84 561.774 c 0
 1030.88 552.507 1003.86 569.881 1011.53 600.555 c 0
 1011.54 600.557 1013.78 577.315 1013.78 577.317 c 0
887.579 275.251 m 1
 508.448 275.251 l 2
 471.485 275.251 457.049 301.235 476.225 333.251 c 0
 495.399 365.267 540.96 391.251 577.923 391.251 c 2
 957.054 391.25 l 2
 987.983 391.25 1002.87 375.677 996.464 350.031 c 2
 992.299 333.368 l 2
 984.638 302.722 945.203 270.331 904.273 261.068 c 0
 863.344 251.805 836.343 269.159 844.003 299.807 c 2
 848.169 316.47 l 1
 870.48 331.793 897.416 334.996 908.293 323.619 c 0
 919.17 312.243 909.891 290.574 887.579 275.251 c 1
EndSplineSet
Fore
189 119 m 0
 241 82 313 78 327 86 c 0
 359 105 433 236 472 325 c 0
 507 405 531 488 543 570 c 1
 508 570 l 2
 493.587 570 422.855 569.077 375.646 547.713 c 2
 366 542 l 2
 359 538 346.182 529.954 340 506 c 0
 332 475 293 442 252 433 c 0
 211 424 184.149 440.962 192 472 c 0
 221.56 588.858 366 686 577 686 c 2
 983 686 l 2
 1080 686 1142 687 1157 660 c 0
 1174 631 1132.94 576.248 1072 562 c 0
 1050.98 557.086 1033 559 1022 567 c 1
 1002 569 953 570 914 570 c 2
 686 570 l 1
 673 506 655 446 634 391 c 1
 957 391 l 2
 988 391 1003 376 996 350 c 2
 992 333 l 2
 979.164 278.449 873.134 232.792 846 275 c 1
 584 275 l 1
 530 167 474.973 93.0238 460 76 c 0
 331.768 -69.7961 157 -48 62 18 c 0
 39 34 49 69 84 97 c 0
 119 125 166 135 189 119 c 0
EndSplineSet
EndChar
StartChar: G
Encoding: 71 71 8
Width: 918
Flags: HMW
Back
694.624 551.845 m 1
 693.165 550.057 699.251 557.337 692.093 569.734 c 0
 688.137 576.587 682.197 579.443 678.326 580.181 c 0
 647.472 586.062 615.733 588.963 583.604 588.963 c 0
 542.377 588.963 427.402 586.122 348.481 540.558 c 0
 307.57 516.938 270.043 477.264 251.673 403.783 c 0
 240.404 358.712 246.347 317.824 266.093 283.621 c 0
 300.275 224.415 372.158 189.755 452.269 184.883 c 0
 495.007 182.284 557.138 188.945 610.745 219.895 c 0
 648.769 241.848 680.801 275.63 693.438 326.177 c 0
 701.105 356.85 740.575 389.268 781.54 398.538 c 0
 822.504 407.808 849.526 390.438 841.858 359.765 c 0
 819.493 270.307 750.16 191.954 657.697 138.571 c 0
 560.496 82.4531 456.61 64.0156 373.834 69.0498 c 0
 243.043 77.0049 159.935 136.063 122.579 200.765 c 0
 96.0303 246.75 86.6895 303.946 103.252 370.195 c 0
 129.587 475.536 198.223 562.237 301.529 621.881 c 0
 421.42 691.1 556.915 705.062 653.137 705.062 c 0
 694.574 705.062 734.483 701.328 772.514 694.079 c 0
 806.169 687.664 825.512 670.076 835.606 652.591 c 0
 850.268 627.196 855.467 581.828 813.516 530.407 c 0
 797.089 510.271 777.904 490.767 756.056 472.629 c 0
 721.874 444.253 674.782 433.306 650.938 448.192 c 0
 627.095 463.078 635.484 498.189 669.665 526.564 c 0
 678.157 533.614 686.619 542.033 694.624 551.845 c 1
476.811 -0.219727 m 0
 497.294 -0.220703 511.397 4.28711 523.403 11.2188 c 0
 545.341 23.8848 523.995 10.6914 534.864 18.8574 c 0
 590.554 60.6953 654.727 171.334 693.438 326.177 c 0
 701.105 356.85 740.575 389.268 781.539 398.538 c 0
 822.504 407.808 849.526 390.438 841.858 359.765 c 0
 821.259 277.366 761.713 70.0449 610.819 -43.3193 c 0
 598.186 -52.8105 584.656 -61.8486 570.354 -70.1055 c 0
 549.14 -82.3535 488.517 -116.318 407.276 -116.318 c 0
 329.862 -116.318 253.412 -112.997 178.13 -106.38 c 0
 143.148 -103.306 133.142 -74.9238 155.794 -43.0283 c 0
 178.446 -11.1338 225.223 12.2568 260.204 9.18262 c 0
 331.549 2.91113 403.821 -0.219727 476.811 -0.219727 c 0
EndSplineSet
Fore
477 -0 m 0
 516 -0 535 19 535 19 c 1
 560 38 587 71 612 115 c 1
 538 82 455 64 374 69 c 0
 196 80 59 194 103 370 c 0
 148 548 329 705 653 705 c 0
 796 705 822 676 836 653 c 0
 870 592 818 524 756 473 c 0
 722 444 675 433 651 448 c 0
 627 463 635 498 670 527 c 0
 678 534 687 542 695 552 c 1
 694 551 698.946 557.969 692 570 c 0
 687.969 576.982 682 579 678 580 c 0
 647 586 616 589 584 589 c 0
 296 589 264 454 252 404 c 0
 205 217 455.943 130.099 611 220 c 0
 648.986 242.024 681 276 693 326 c 0
 701 357 741 389 782 399 c 0
 818 407 843 394 843 370 c 0
 843 367 843 363 842 360 c 0
 760 34 581 -116 407 -116 c 0
 330 -116 253.025 -112.716 178 -106 c 0
 143.012 -102.868 133 -75 156 -43 c 0
 178 -11 224.993 11.9172 260 9 c 0
 332 3 404 -0 477 -0 c 0
EndSplineSet
EndChar
StartChar: H
Encoding: 72 72 9
Width: 1336
Flags: HMW
Back
435.636 366.64 m 0
 448.854 419.513 456.214 472.403 457.529 524.215 c 0
 457.757 533.173 455.649 541.464 451.662 548.37 c 0
 448.935 553.095 442.518 561.222 432.192 565.831 c 0
 426.105 568.548 419.93 569.525 415.348 569.523 c 0
 344.439 569.488 298.507 557.034 262.755 536.393 c 0
 241.21 523.954 217.578 505.521 189.946 474.497 c 0
 162.276 443.431 114.526 424.589 83.3623 432.44 c 0
 52.1973 440.291 49.3623 471.876 77.0322 502.942 c 0
 117.508 548.387 163.801 587.693 215.803 617.717 c 0
 306.759 670.23 398.284 685.579 484.805 685.621 c 0
 509.322 685.634 529.967 681.022 547.093 673.378 c 0
 568.521 663.812 584.66 649.44 595.176 631.227 c 0
 604.203 615.592 609.042 597.035 608.505 575.868 c 0
 607.048 518.47 598.902 459.612 584.057 400.227 c 0
 552.456 273.826 507.039 147.551 448.425 23.5273 c 0
 433.371 -8.3252 389.614 -37.0059 350.752 -40.4912 c 0
 311.891 -43.9766 292.567 -20.9531 307.621 10.9004 c 0
 362.653 127.346 405.646 246.684 435.636 366.64 c 0
1012.98 267.016 m 0
 999.142 211.66 991.34 156.297 989.766 102.028 c 0
 989.499 92.8691 991.646 84.334 995.679 77.3486 c 0
 998.392 72.6484 1002.68 67.0684 1010.22 62.6641 c 0
 1013.14 60.958 1020.12 57.2979 1028.9 57.6035 c 0
 1067.04 58.9287 1091.53 61.9062 1107.84 65.2988 c 0
 1124.07 68.6758 1121.06 68.3184 1121.07 68.3223 c 0
 1121.12 68.3496 1102.91 50.4629 1102.91 50.4658 c 0
 1110.58 81.1387 1150.05 113.557 1191.01 122.826 c 0
 1231.98 132.097 1259 114.726 1251.33 84.0527 c 0
 1241.57 45.0205 1209.3 10.8281 1168.02 -13.002 c 0
 1134.66 -32.2646 1102.31 -41.2412 1076.24 -46.6631 c 0
 1053.29 -51.4365 1018.43 -56.5381 964.918 -58.3975 c 0
 938.471 -59.3164 911.14 -54.6357 888.13 -41.2031 c 0
 872.541 -32.1016 860.542 -20.0186 852.165 -5.50781 c 0
 843.004 10.3604 838.174 29.1914 838.797 50.6396 c 0
 840.532 110.419 849.118 171.664 864.56 233.428 c 0
 897.056 363.412 943.344 493.268 1002.82 620.928 c 0
 1017.65 652.76 1061.29 681.572 1100.24 685.24 c 0
 1139.19 688.908 1158.76 666.05 1143.93 634.218 c 0
 1087.87 513.879 1043.91 390.742 1012.98 267.016 c 0
298.302 250.672 m 2
 261.339 250.672 246.902 276.656 266.078 308.672 c 0
 285.253 340.688 330.813 366.672 367.776 366.672 c 2
 913.164 366.672 l 2
 950.126 366.672 964.562 340.688 945.388 308.672 c 0
 926.212 276.655 880.651 250.672 843.688 250.672 c 2
 298.302 250.672 l 2
EndSplineSet
Fore
298 251 m 2
 261 251 247 277 266 309 c 0
 285 341 331 367 368 367 c 2
 435 367 l 1
 458 462 463 529 452 548 c 0
 444 561 430 570 415 570 c 0
 311 569 252.678 543.394 190 474 c 0
 162 443 115 425 83 432 c 0
 52 440 49.1237 471.889 77 503 c 0
 189.499 628.553 322 686 485 686 c 0
 552 686 610 648 609 576 c 0
 607 509 594 437 575 367 c 1
 902 367 l 1
 943 492 991 595 1003 621 c 0
 1018 653 1061 682 1100 685 c 0
 1139 689 1159 666 1144 634 c 0
 1128.05 599.976 996 317 990 102 c 0
 989 77 1007 57 1029 58 c 0
 1045 58 1086 61 1109 65 c 1
 1123 91 1157 115 1191 123 c 0
 1232 132 1259 115 1251 84 c 0
 1243 51 1203 -20 1076 -47 c 0
 872 -89 837.108 -7.00351 839 51 c 0
 841.121 115.996 853 186 870 255 c 1
 861 252 852 251 844 251 c 2
 540 251 l 1
 502 138 460 48 448 24 c 0
 433 -8 390 -37 351 -40 c 0
 312 -44 293.117 -21.0548 308 11 c 0
 347 95 379 177 402 251 c 1
 298 251 l 2
EndSplineSet
EndChar
StartChar: I
Encoding: 73 73 10
Width: 902
Flags: HMW
Back
489.74 569.573 m 2
 359.844 569.572 273.595 567.648 217.262 551.861 c 0
 203.828 548.098 205.895 548.281 205.209 547.887 c 0
 205.209 547.886 222.771 568.823 221.949 565.534 c 0
 214.288 534.888 174.852 502.498 133.922 493.235 c 0
 92.9932 483.974 65.9932 501.329 73.6553 531.976 c 0
 83.7012 572.16 118.344 606.074 158.297 629.141 c 0
 179.153 641.183 204.022 651.721 233.486 659.978 c 0
 300.69 678.811 375.053 685.572 559.215 685.573 c 2
 905.517 685.573 l 2
 942.479 685.573 956.916 659.59 937.741 627.573 c 0
 918.566 595.558 873.005 569.573 836.043 569.573 c 2
 489.74 569.573 l 2
658.247 570.063 m 1
 658.229 570.053 655.118 568.873 645.027 555.673 c 0
 616.424 518.257 591.24 453.509 567.805 359.765 c 0
 527.368 198.018 451.394 117.736 423.447 91.0371 c 0
 404.317 72.7617 381.708 54.9453 355.458 39.79 c 0
 307.247 11.9561 257.625 0.319336 217.543 0.319336 c 0
 180.549 0.319336 166.101 26.3252 185.292 58.3682 c 0
 204.482 90.4111 250.082 116.417 287.076 116.418 c 0
 298.551 116.418 303.631 118.3 308.506 121.114 c 0
 311.6 122.9 316.716 126.418 323.627 133.021 c 0
 354.811 162.812 395.068 228.914 419.384 326.178 c 0
 451.945 456.421 486.195 525.032 522.218 572.152 c 0
 541.318 597.137 570.849 628.035 611.295 651.388 c 0
 638.666 667.189 664.474 675.939 685.7 680.538 c 0
 700.146 683.668 714.935 685.621 732.396 685.621 c 0
 769.389 685.621 783.838 659.615 764.646 627.572 c 0
 745.455 595.529 699.855 569.523 662.861 569.523 c 0
 658.194 569.523 656.748 569.142 655.902 568.958 c 0
 655.249 568.816 657.901 569.863 658.247 570.063 c 1
676.646 116.368 m 2
 684.972 116.368 741.476 115.812 758.184 120.966 c 0
 758.211 120.974 747.921 116.114 748.142 116.241 c 0
 748.147 116.245 718.816 83.6943 719.42 86.1074 c 0
 727.082 116.754 766.518 149.145 807.446 158.406 c 0
 848.376 167.669 875.376 150.313 867.715 119.667 c 0
 864.098 105.201 849.752 66.5664 795.055 34.9873 c 0
 781.842 27.3584 766.674 20.3867 748.133 14.667 c 0
 719.372 5.79492 686.61 0.368164 607.172 0.368164 c 2
 87.7051 0.368164 l 2
 50.7422 0.368164 36.3066 26.3525 55.4814 58.3682 c 0
 74.6562 90.3848 120.217 116.368 157.18 116.368 c 2
 676.646 116.368 l 2
EndSplineSet
Fore
677 116 m 2
 683 116 715 116 738 118 c 1
 787.777 173.633 880.707 174.461 868 120 c 0
 856 74 806.956 33.1416 748 15 c 0
 718.979 6.06973 687 0 607 0 c 2
 88 0 l 2
 51 0 36 26 55 58 c 0
 75 90 120 116 157 116 c 2
 287 116 l 2
 303 116 310 120 324 133 c 0
 355 163 394.235 229.192 419 326 c 0
 430 369 455 481 521 570 c 1
 490 570 l 1
 490 570 280 571 217 553 c 1
 180.024 481.689 57.6742 468.738 74 532 c 0
 89 595 161.015 639.945 233 660 c 0
 301.014 678.948 375 686 559 686 c 2
 906 686 l 2
 942 686 957 660 938 628 c 0
 919 596 873 570 836 570 c 2
 663 570 l 2
 660 570 658 569 657 569 c 1
 655 568 652 564 645 556 c 0
 565 450 579 263 448 116 c 1
 677 116 l 2
EndSplineSet
EndChar
StartChar: J
Encoding: 74 74 11
Width: 1046
Flags: HMW
Back
757.412 569.523 m 2
 660.19 569.523 590.159 545.797 556.23 526.208 c 0
 540.951 517.388 527.519 506.639 517.052 492.578 c 0
 509.069 481.854 501.401 467.516 496.618 448.383 c 0
 488.95 417.71 449.48 385.293 408.516 376.022 c 0
 367.552 366.753 340.529 384.123 348.197 414.796 c 0
 356.128 446.518 370.792 477.581 392.761 507.093 c 0
 408.382 528.078 443.823 569.742 509.278 607.532 c 0
 614.536 668.303 735.954 685.622 826.945 685.622 c 2
 1126.33 685.622 l 2
 1163.32 685.622 1177.77 659.615 1158.58 627.572 c 0
 1139.38 595.529 1093.79 569.523 1056.79 569.523 c 2
 757.412 569.523 l 2
1004.64 557.22 m 0
 978.95 542.389 1003.75 558.07 990.231 547.256 c 0
 930.138 499.166 864.506 377.564 808.61 153.979 c 0
 788.012 71.5869 724.302 2.51953 641.286 -45.4092 c 0
 607.169 -65.1064 509.227 -116.318 374.839 -116.318 c 0
 273.399 -116.318 151.834 -96.0264 108.621 -21.1787 c 0
 94.6514 3.01855 87.3184 36.3477 98.333 80.4043 c 0
 106.001 111.078 145.471 143.495 186.435 152.766 c 0
 227.398 162.035 254.422 144.665 246.754 113.992 c 0
 241.079 91.2959 244.933 74.1523 252.135 61.6777 c 0
 275.172 21.7754 347.945 -0.219727 444.372 -0.219727 c 0
 506.471 -0.219727 560.359 16.2998 594.334 35.915 c 0
 645.917 65.6963 656.502 105.644 660.189 120.393 c 0
 732.746 410.62 819.754 533.958 907.605 604.26 c 0
 922.91 616.508 939.68 628.147 957.688 638.544 c 0
 981.354 652.208 1030.12 676.382 1089.54 683.441 c 0
 1097.1 684.339 1109.98 685.622 1126.33 685.622 c 0
 1163.32 685.622 1177.77 659.616 1158.58 627.572 c 0
 1139.39 595.529 1093.79 569.523 1056.79 569.523 c 0
 1048.62 569.523 1042.75 568.875 1040.34 568.589 c 0
 1030.62 567.434 1017.8 564.82 1004.64 557.22 c 0
EndSplineSet
Fore
757 570 m 2
 704 570 566 558 517 493 c 0
 509 482 501 468 497 448 c 0
 489 418 449 385 409 376 c 0
 368 367 341 384 348 415 c 0
 385 562 573 686 827 686 c 2
 1126 686 l 2
 1163 686 1178 660 1159 628 c 0
 1139 596 1094 570 1057 570 c 0
 1041 570 1022 567 1005 557 c 2
 994 551 l 1
 994 551 995 551 990 547 c 0
 930 499 866.059 377.733 809 154 c 0
 771 5 581 -116 375 -116 c 0
 255 -116 57 -85 98 80 c 0
 106 111 145 143 186 153 c 0
 227 162 254 145 247 114 c 0
 227 34 323 -0 444 -0 c 0
 550.389 0 643.921 44.9631 660 120 c 0
 722 367 796 495 868 570 c 1
 757 570 l 2
EndSplineSet
EndChar
StartChar: K
Encoding: 75 75 12
Width: 1153
Flags: HMW
Back
215.785 386.989 m 0
 230.107 444.28 237.488 501.588 237.715 557.507 c 1
 202.942 539.964 l 2
 162.244 519.43 121.932 522.73 112.959 547.33 c 0
 103.986 571.93 129.734 608.56 170.433 629.093 c 2
 294.279 691.577 l 2
 316.962 703.021 337.515 707.234 356.047 704.239 c 0
 374.579 701.245 384.513 692.105 385.899 676.772 c 0
 393.334 594.559 386.098 508.146 364.205 420.576 c 0
 332.715 294.615 287.404 168.778 228.896 45.2002 c 0
 213.813 13.3447 170.042 -15.3193 131.191 -18.7803 c 0
 92.3408 -22.2422 73.0498 0.801758 88.1318 32.6572 c 0
 143.037 148.625 185.912 267.497 215.785 386.989 c 0
904.004 604.193 m 1
 904.002 604.196 907.695 599.446 908.888 599.058 c 1
 901.583 601.439 883.582 601.743 866.179 601.743 c 0
 831.379 601.742 683.413 558.893 558.022 486.498 c 0
 516.675 462.625 487.146 438.151 484.123 431.308 c 0
 484.119 431.298 490.329 455.617 484.642 432.866 c 0
 484.641 432.863 485.414 430.725 485.415 430.721 c 0
 487.241 419.213 493.748 399.732 513.642 365.275 c 0
 587.787 236.849 730.169 99.9961 795.805 85.0957 c 0
 799.25 84.3135 801.518 84.1982 801.893 84.1982 c 0
 866.141 84.1982 907.8 87.4404 932.904 95.9834 c 0
 940.466 98.5566 928.616 94.0771 937.639 97.7402 c 0
 942.45 99.6943 932.256 94.9785 941.379 99.3945 c 0
 941.633 99.5176 907.678 79.7969 944.146 100.852 c 0
 948.516 103.375 951.481 106.903 953.641 115.542 c 0
 960.777 144.086 992.817 168.24 1025.16 169.457 c 0
 1057.5 170.674 1077.96 148.495 1070.82 119.951 c 0
 1060.36 78.0869 1032.56 43.124 991.245 19.2734 c 0
 982.128 14.0098 980.22 13.3115 977.409 11.9521 c 0
 968.286 7.53613 966.363 6.94141 963.568 5.80664 c 0
 954.546 2.14258 952.586 1.62891 949.821 0.688477 c 0
 886.584 -20.832 808.619 -19.3174 771.068 -19.3174 c 0
 759.344 -19.3174 748.841 -17.8496 738.943 -15.6025 c 0
 611.067 13.4277 453.322 214.861 403.271 301.554 c 0
 379.101 343.419 369.467 372.231 366.384 391.662 c 0
 363.64 408.956 365.605 421.035 367.461 428.456 c 0
 368.883 434.144 371.617 441.314 373.019 444.486 c 0
 396.506 497.679 465.239 541.7 510.924 568.076 c 0
 642.038 643.775 820.795 705.259 897.003 705.259 c 0
 945.091 705.259 961.131 701.72 974.772 697.271 c 0
 988.895 692.667 1004.9 684.331 1014.37 667.916 c 0
 1023.25 652.547 1023.02 634.283 1019.33 619.548 c 0
 1012.2 591.004 980.158 566.85 947.816 565.632 c 0
 915.475 564.415 895.018 586.594 902.154 615.139 c 1
 901.912 614.17 901.625 608.313 904.004 604.193 c 1
EndSplineSet
Fore
485 432 m 1
 485 427 495 397 514 365 c 0
 597 221 753 84 802 84 c 0
 956.136 84 950.871 106.613 954 116 c 0
 961 144 993 168 1025 169 c 0
 1058 171 1078 148 1071 120 c 0
 1057 66 1016 23 950 1 c 0
 887 -21 809 -19 771 -19 c 0
 624 -19 440.005 238.003 403 302 c 0
 355.006 385.003 361 418 373 444 c 0
 428 569 790 705 897 705 c 0
 955 705 996 699 1014 668 c 0
 1036.02 631.294 1008.06 568.14 948 566 c 0
 922.996 565.109 905 578 901 596 c 1
 893 596 879 602 866 602 c 0
 831 602 683 559 558 486 c 0
 518 464 489 440 485 432 c 1
88 33 m 0
 105.846 71.0724 237 347 238 558 c 1
 203 540 l 2
 162 519 122 523 113 547 c 0
 104 572 130.129 608.743 170 629 c 2
 294 692 l 2
 332 711 382.964 712.997 386 677 c 0
 392.917 594.993 385.72 508.07 364 421 c 0
 332.595 295.101 287 169 229 45 c 0
 214 13 170 -15 131 -19 c 0
 92 -22 73 1 88 33 c 0
EndSplineSet
EndChar
StartChar: L
Encoding: 76 76 13
Width: 1046
Flags: HMW
Back
867.09 26.209 m 1
 840.408 13.9883 789.229 -19.0283 682.426 -19.0283 c 0
 534.901 -19.0283 381.517 7.75391 241.013 7.75391 c 0
 223.94 7.75391 199.444 5.10742 173.341 -6.64062 c 0
 128.146 -26.9814 87.957 -21.7109 83.6309 5.12402 c 0
 79.3057 31.958 112.475 70.2441 157.669 90.584 c 0
 217.065 117.316 276.072 129.753 327.437 129.753 c 0
 474.961 129.753 628.346 102.972 768.852 102.971 c 0
 807.398 102.971 820.184 107.427 820.195 107.433 c 0
 820.205 107.438 801.319 86.0215 803.593 95.1123 c 0
 811.409 126.38 854.05 161.897 898.772 174.392 c 0
 943.495 186.886 973.448 171.648 965.631 140.381 c 0
 954.641 96.417 919.603 56.5273 867.09 26.209 c 1
691.206 553.249 m 0
 679.244 573.968 649.545 582.784 622.741 582.784 c 0
 597.843 582.784 579.95 576.956 564.773 568.193 c 0
 542.397 555.275 564.224 568.784 551.553 559.521 c 0
 497.556 520.051 425.913 419.85 390.36 277.636 c 0
 365.333 177.524 329.421 98.6387 255.898 40.4395 c 0
 242.783 30.0576 229.516 21.1787 216.267 13.5293 c 0
 197.836 2.88867 177.907 -6.10254 158.566 -12.6084 c 0
 113.188 -27.875 79.4668 -15.8125 83.2969 14.3154 c 0
 87.126 44.4443 127.063 81.2852 172.441 96.5508 c 0
 172.442 96.5508 170.696 95.8496 169.229 95.002 c 1
 169.362 95.0791 167.248 93.7119 167.258 93.7197 c 0
 185.007 107.77 209.479 158.845 227.825 232.229 c 0
 256.802 348.136 328.816 515.081 473.054 620.517 c 0
 487.105 630.788 502.048 640.608 517.735 649.665 c 0
 579.713 685.448 646.287 705.157 709.432 705.157 c 0
 768.989 705.156 825.786 685.387 849.358 644.558 c 0
 860.435 625.375 864.557 600.924 857.19 571.458 c 0
 849.35 540.095 806.577 504.469 761.718 491.937 c 0
 716.858 479.404 686.813 494.688 694.654 526.052 c 0
 697.065 535.693 696.064 544.834 691.206 553.249 c 0
EndSplineSet
Fore
695 526 m 0
 703 559 669 583 623 583 c 0
 576 583 552 560 552 560 c 1
 498 520 426 420 390 278 c 0
 383 249 369 189 333 130 c 1
 479 129 630 103 769 103 c 0
 787 103 799 104 807 105 c 1
 820 134 859 163 899 174 c 0
 943 187 973 172 966 140 c 0
 947.099 64.3962 842.529 -19 682 -19 c 0
 535 -19 382 8 241 8 c 0
 228 8 210 6 190 -0 c 1
 120.586 -34.707 78.6179 -18.8658 83 14 c 0
 87.1728 44.2526 124.951 79.2331 170 96 c 1
 187 112 210 162 228 232 c 0
 303.985 527.497 517 705 709 705 c 0
 791 705 881 665 857 571 c 0
 849 540 807 504 762 492 c 0
 717 479 687 495 695 526 c 0
EndSplineSet
EndChar
StartChar: M
Encoding: 77 77 14
Width: 1777
Flags: HMW
Back
673.012 219.463 m 0
 654.808 248.537 637.109 277.963 619.922 307.733 c 0
 590.574 358.568 562.715 410.404 536.368 463.196 c 1
 525.721 419.161 512.018 373.033 494.62 325.234 c 0
 483.202 293.862 470.529 262.694 456.658 231.851 c 0
 436.803 187.698 390.956 80.2705 335.422 13.334 c 0
 293.39 -37.3291 251.127 -61.7598 208.571 -59.2188 c 0
 186.185 -57.8818 164.804 -53.5625 144.821 -46.291 c 0
 137.897 -43.7715 131.142 -40.8945 124.572 -37.6592 c 0
 118.191 -34.5156 105.384 -27.8213 94.2441 -18.0391 c 0
 73.835 -0.115234 73.9307 46.9414 94.458 86.999 c 0
 114.985 127.056 148.21 145.019 168.619 127.096 c 0
 175.176 121.338 184.705 116.714 186.59 115.785 c 0
 191.376 113.428 196.354 111.306 201.502 109.432 c 0
 216.359 104.024 232.636 100.701 249.778 99.6777 c 0
 265.461 98.7412 277.339 107.084 291.05 123.61 c 0
 321.785 160.656 353.615 232.985 376.458 283.777 c 0
 387.48 308.289 397.447 332.823 406.375 357.353 c 0
 439.231 447.624 458.249 537.863 463.071 627.633 c 0
 462.437 650.181 482.476 677.441 513.368 693.401 c 0
 550.03 712.341 588.164 708.228 598.488 684.22 c 0
 643.237 580.161 693.674 479.515 749.618 382.612 c 0
 766.452 353.454 783.785 324.636 801.611 296.165 c 0
 836.245 240.854 878.124 191.139 926.366 147.916 c 1
 875.257 114.235 l 1
 856.329 34.377 l 1
 843.775 34.3691 832.628 37.5723 824.735 44.2588 c 0
 765.186 94.7109 714.294 153.533 673.012 219.463 c 0
1533.37 213.631 m 0
 1532.98 175.027 1537.4 137.594 1546.47 102.193 c 0
 1547.19 99.3887 1548.07 97.415 1549.13 95.5811 c 0
 1552.93 89.0039 1559.09 85.8672 1563.53 85.3682 c 1
 1603.85 105.71 l 2
 1644.55 126.242 1684.86 122.942 1693.83 98.3428 c 0
 1702.81 73.7432 1677.06 37.1133 1636.36 16.5801 c 2
 1592.33 -5.63672 l 2
 1556.95 -23.4844 1521.32 -31.1621 1493.06 -30.7871 c 0
 1481.92 -30.6387 1430.04 -29.5732 1405.62 12.7246 c 0
 1402.36 18.374 1399.6 24.4365 1397.38 33.0762 c 0
 1387 73.5654 1381.93 116.404 1382.37 160.873 c 0
 1383.6 283.619 1394.42 408.392 1414.76 534.212 c 1
 1525.71 625.444 l 1
 1578.03 653.946 l 1
 1578.02 651.619 1577.78 649.183 1577.3 646.646 c 0
 1549.5 500.815 1534.79 355.894 1533.37 213.631 c 0
1081.72 335.935 m 0
 1228.46 451.267 1372.72 569.887 1514.31 691.647 c 0
 1542.56 715.945 1570.6 706.006 1576.89 669.462 c 0
 1583.19 632.918 1565.37 583.539 1537.11 559.242 c 0
 1393.76 435.965 1247.78 315.926 1099.34 199.265 c 0
 1028.04 143.227 954.432 90.7959 878.899 42.209 c 0
 850.022 23.6328 824.954 40.8252 822.943 80.584 c 0
 820.932 120.343 842.736 167.687 871.613 186.263 c 0
 943.845 232.727 1014.01 282.725 1081.72 335.935 c 0
EndSplineSet
Fore
79 26 m 0
 79 81 117 134 150 134 c 0
 169 134 190 100 252 100 c 0
 266 100 278 108 291 124 c 0
 347 192 463 456 463 629 c 0
 463 669 519 705 560 705 c 0
 577 705 592 699 598 684 c 0
 643 580 694 480 750 383 c 2
 802 296 l 2
 825 259 851 224 881 192 c 1
 950 237 1017 285 1082 336 c 2
 1514 692 l 2
 1525 701 1535 705 1544 705 c 0
 1565 705 1578 685 1578 655 c 0
 1578 641 1575 626 1571 612 c 0
 1558 536 1533 372 1533 237 c 0
 1533 185 1537 138 1546 102 c 0
 1549 92 1557 86 1564 85 c 1
 1604 106 l 2
 1622 115 1640 119 1655 119 c 0
 1688 119 1696 100 1696 88 c 0
 1696 64 1672 34 1636 17 c 2
 1592 -6 l 2
 1558 -23 1525 -31 1496 -31 c 0
 1447 -31 1408 -9 1397 33 c 0
 1387 74 1382 116 1382 161 c 0
 1383 256 1390 352 1402 448 c 1
 1099 199 l 2
 1028 143 954 91 879 42 c 0
 871 37 863 35 856 35 c 0
 844 35 833 38 825 44 c 0
 765 95 714 154 673 219 c 2
 620 308 l 2
 591 359 563 410 536 463 c 1
 493 285 396 86 335 13 c 0
 314 -11 275 -60 208 -60 c 0
 172 -60 120 -42 94 -18 c 0
 84 -9 79 7 79 26 c 0
EndSplineSet
EndChar
StartChar: N
Encoding: 78 78 15
Width: 1233
Flags: HMW
Back
108.349 115.58 m 0
 112.874 113.402 117.562 111.429 122.396 109.669 c 0
 137.636 104.122 154.326 100.72 171.9 99.6777 c 0
 199.26 98.0566 212.087 118.646 224.827 143.564 c 0
 234.029 161.564 243.98 186.05 253.898 212.447 c 0
 255.993 218.024 257.537 222.22 259.065 226.42 c 0
 308.029 360.964 334.646 495.754 338.206 628.642 c 1
 440.656 628.642 l 1
 431.454 486.021 399.911 338.82 347.311 194.302 c 0
 345.473 189.252 343.617 184.208 341.098 177.501 c 0
 333.551 157.415 318.052 116.329 298.896 78.8604 c 0
 266.135 14.7822 208.951 -63.8564 130.719 -59.2197 c 0
 107.893 -57.8672 86.0889 -53.4678 65.7168 -46.0537 c 0
 59.2539 -43.7021 52.9375 -41.0459 46.7773 -38.082 c 0
 40.1846 -34.9092 26.9443 -28.1553 15.4229 -18.1943 c 0
 -5.08496 -0.463867 -5.14941 46.5059 15.2793 86.6484 c 0
 35.708 126.792 68.9316 144.98 89.4404 127.251 c 0
 96.3428 121.284 106.366 116.534 108.349 115.58 c 0
1137.01 626.472 m 1
 1137.01 626.472 1133.91 620.382 1133.9 620.374 c 0
 1127.7 608.616 1119.19 589.304 1107.52 557.25 c 0
 1096.92 528.131 1086.39 495.682 1077.08 466.878 c 0
 1028.73 317.334 986.154 167.481 949.446 17.6162 c 1
 947.147 21.2666 l 1
 852.457 21.2666 l 1
 890.728 177.337 935.078 333.37 985.389 488.961 c 0
 994.747 517.903 1006.22 553.496 1019.28 589.368 c 0
 1037.65 639.846 1051.7 669.696 1061.46 688.219 c 0
 1074.67 713.258 1087.5 731.71 1100.25 745.411 c 0
 1179.32 830.358 1279.76 845.378 1345 845.378 c 0
 1372.02 845.378 1385.5 809.763 1375.1 765.879 c 0
 1364.7 721.994 1334.33 686.378 1307.32 686.378 c 0
 1297.28 686.378 1193.71 687.383 1137.01 626.472 c 1
509.833 620.329 m 0
 586.671 487.24 670.015 358.688 759.654 235 c 0
 810.54 164.786 869.623 101.363 936.01 45.6035 c 0
 956.679 28.2432 947.49 -6.27734 915.498 -31.4512 c 0
 883.507 -56.624 840.767 -62.9648 820.098 -45.6045 c 0
 749.591 13.6152 687.07 80.7725 633.312 154.949 c 0
 542.452 280.323 457.992 410.598 380.137 545.45 c 0
 367.227 567.812 354.499 590.298 341.953 612.909 c 0
 329.325 635.668 348.24 670.715 384.174 691.139 c 0
 420.108 711.562 459.521 709.667 472.148 686.908 c 0
 484.53 664.591 497.093 642.397 509.833 620.329 c 0
EndSplineSet
Fore
510 620 m 0
 587.591 487.346 670.098 359.071 760 235 c 0
 794.037 188.027 832 144 873 103 c 1
 921 284 1007 584 1061 688 c 0
 1127 813 1253 845 1345 845 c 0
 1372 845 1385 810 1375 766 c 0
 1365 722 1334 686 1307 686 c 0
 1297 686 1194 687 1137 626 c 1
 1081 517 979 140 949 18 c 1
 947 21 l 1
 947 -29.4188 857.541 -76.3907 820 -46 c 0
 750 14 687 81 633 155 c 0
 559 258 488 364 422 474 c 1
 406 381 381 287 347 194 c 2
 341 178 l 2
 314.781 108.082 248.029 -65.4761 131 -59 c 0
 72.0146 -55.7359 33 -33 15 -18 c 0
 -5 -0 -5 47 15 87 c 0
 36 127 69 145 89 127 c 0
 103 116 136 102 172 100 c 0
 202 98 219 119 254 212 c 2
 259 226 l 2
 306.988 360.366 334 494 338 626 c 0
 335.403 683.133 446.911 735.087 472 687 c 0
 485 665 497.098 642.057 510 620 c 0
EndSplineSet
EndChar
StartChar: O
Encoding: 79 79 16
Width: 1186
Flags: HMW
Back
392.508 563.589 m 0
 325.131 524.689 281.538 457.043 265.793 394.063 c 0
 250.362 332.34 258.416 277.411 284.786 231.737 c 0
 334.362 145.868 446.724 96.9775 571.216 96.9775 c 0
 673.028 96.9775 769.354 123.772 837.112 162.893 c 0
 904.57 201.84 950.262 256.417 967.702 326.177 c 0
 982.66 386.012 974.878 441.726 949.246 486.12 c 0
 910.882 552.571 836.753 588.963 754.783 588.963 c 0
 708.814 588.963 674.875 570.518 663.022 563.674 c 0
 629.473 544.305 593.074 510.417 566.524 463.414 c 0
 548.433 431.385 503.279 404.623 465.735 403.678 c 0
 428.191 402.732 412.404 427.96 430.495 459.989 c 0
 470.536 530.876 534.294 597.785 616.07 644.998 c 0
 634.063 655.387 720.953 705.062 824.317 705.062 c 0
 951.997 705.062 1046.8 648.586 1092.76 568.977 c 0
 1125.55 512.181 1136.37 440.741 1116.12 359.765 c 0
 1087.16 243.926 998.882 147.857 884.063 81.5684 c 0
 762.778 11.5449 622.538 -19.1211 501.683 -19.1211 c 0
 337.545 -19.1211 201.769 44.0977 141.272 148.881 c 0
 108.055 206.416 96.7129 277.837 117.373 360.476 c 0
 144.541 469.15 227.835 576.947 345.557 644.913 c 0
 396.165 674.132 452.144 694.846 506.491 703.809 c 0
 546.653 710.432 570.214 690.361 559.084 659.011 c 0
 547.953 627.659 506.324 596.84 466.163 590.217 c 0
 438.682 585.685 415.067 576.613 392.508 563.589 c 0
EndSplineSet
Fore
466 590 m 0
 318 566 204.464 372.267 285 232 c 0
 334.284 146.163 447 97 571 97 c 0
 673 97 769 124 837 163 c 0
 980 246 1001.69 393.823 949 486 c 0
 910.775 552.871 837 589 755 589 c 0
 678 589 608 537 567 463 c 0
 548 431 503 405 466 404 c 0
 428 403 412 428 430 460 c 0
 508 597 669 705 824 705 c 0
 1020 705 1167 565 1116 360 c 0
 1061 139 784 -19 502 -19 c 0
 258 -19 58 125 117 360 c 0
 159 526 325 674 506 704 c 0
 547 710 570 690 559 659 c 0
 548 628 506 597 466 590 c 0
EndSplineSet
EndChar
StartChar: P
Encoding: 80 80 17
Width: 1100
Flags: HMW
Back
375.548 287.272 m 0
 401.907 392.712 415.162 498.067 414.868 600.741 c 0
 414.786 629.155 448.544 664.237 490.22 679.049 c 0
 531.895 693.859 565.784 682.819 565.866 654.404 c 0
 566.178 545.564 552.15 433.591 523.969 320.86 c 0
 495.786 208.13 453.666 95.5068 398.284 -14.627 c 0
 382.227 -46.5596 337.981 -74.6318 299.523 -77.2891 c 0
 261.066 -79.9463 242.886 -56.1855 258.944 -24.2529 c 0
 309.924 77.127 349.188 181.833 375.548 287.272 c 0
229.458 541.41 m 0
 227.867 540.492 214.899 534.225 207.722 505.514 c 0
 200.053 474.841 160.583 442.424 119.619 433.153 c 0
 78.6553 423.884 51.6328 441.254 59.3008 471.927 c 0
 65.8154 497.986 87.8828 568.104 182.506 622.734 c 0
 198.825 632.156 215.254 639.868 231.294 646.242 c 0
 336.812 688.17 471.547 685.622 525.134 685.622 c 0
 562.128 685.622 576.576 659.616 557.385 627.573 c 0
 538.194 595.529 492.595 569.523 455.601 569.523 c 0
 353.511 569.523 282.644 563.382 240.853 546.776 c 0
 235.651 544.71 231.947 542.848 229.458 541.41 c 0
888.892 371.382 m 0
 894.826 374.809 913.848 385.659 927.792 407.687 c 0
 934.037 417.551 940.091 430.61 944.249 447.242 c 0
 949.109 466.685 950.506 488.413 939.663 507.192 c 0
 909.573 559.311 804.129 569.523 626.295 569.523 c 2
 455.6 569.523 l 2
 418.606 569.523 404.157 595.529 423.349 627.573 c 0
 442.54 659.616 488.14 685.622 525.134 685.622 c 2
 695.829 685.622 l 2
 839.138 685.622 1027.89 685.812 1083.18 590.05 c 0
 1103.04 555.639 1101.54 516.292 1092.67 480.829 c 0
 1086.09 454.493 1075.37 428.981 1059.71 404.256 c 0
 1031.53 359.73 989.097 320.804 935.844 290.058 c 0
 868.512 251.185 753.374 206.104 535.44 206.104 c 0
 498.446 206.104 483.998 232.109 503.189 264.153 c 0
 522.381 296.196 567.979 322.202 604.974 322.202 c 0
 747.326 322.202 841.449 343.991 888.892 371.382 c 0
EndSplineSet
Fore
497 226 m 1
 468 135 432.8 54.1006 398 -15 c 0
 381.908 -46.9535 338 -75 300 -77 c 0
 261 -80 243 -56 259 -24 c 0
 363.6 185.2 410 389 415 569 c 1
 227.177 564.632 216.653 539.532 208 506 c 0
 200 475 161 442 120 433 c 0
 79 424 52 441 59 472 c 0
 80 554 148.034 612.914 231 646 c 0
 336.044 687.891 470 686 524 686 c 2
 696 686 l 2
 868 686 1144 688 1093 481 c 0
 1073 403 981 206 535 206 c 0
 515 206 502 214 497 226 c 1
605 322 m 0
 665 322 875 325 928 408 c 0
 945 435 956 479 940 507 c 0
 910 559 804 570 626 570 c 2
 563 570 l 1
 557 465 538 367 512 276 c 1
 534 303 573 322 605 322 c 0
EndSplineSet
EndChar
StartChar: Q
Encoding: 81 81 18
Width: 1246
Flags: HMW
Back
656.443 112.314 m 0
 736.445 135.144 788.807 160.919 818.887 178.285 c 0
 874.746 210.535 927.574 255.662 945.203 326.178 c 0
 958.684 380.101 951.705 427.93 928.615 467.926 c 0
 883.314 546.388 780.859 588.963 667.445 588.963 c 0
 569.746 588.963 481.68 564.351 422.469 530.165 c 0
 367.525 498.444 331.02 455.043 316.42 396.639 c 0
 307.68 361.684 312.039 331.059 327.137 304.908 c 0
 358.084 251.306 434.064 219.305 521.709 219.305 c 0
 581.592 219.305 642.086 222.566 702.91 229.041 c 0
 742.088 233.211 762.348 210.811 748.135 179.04 c 0
 733.92 147.27 690.59 118.1 651.412 113.93 c 0
 584.186 106.774 517.678 103.206 452.176 103.206 c 0
 341.676 103.206 231.062 139.884 183.623 222.052 c 0
 161.703 260.018 154.109 307.492 167.998 363.051 c 0
 200.033 491.187 305.637 571.145 375.518 611.489 c 0
 500.164 683.453 636.639 705.062 736.979 705.062 c 0
 889.18 705.062 1016.15 647.734 1072.13 550.782 c 0
 1102.05 498.946 1112.32 434.536 1093.62 359.765 c 0
 1068.08 257.576 986.514 166.633 865.838 96.9609 c 0
 782.455 48.8203 696.303 20.1113 641.32 4.42188 c 0
 513.289 -32.1123 380.859 -58.0488 252.361 -58.0488 c 0
 215.367 -58.0488 200.918 -32.043 220.109 0 c 0
 239.301 32.043 284.9 58.0488 321.895 58.0488 c 0
 429.469 58.0498 541.596 79.542 656.443 112.314 c 0
944.107 -39.1982 m 0
 953.178 -39.1982 972.338 -38.6992 992.209 -34.2979 c 0
 1001.45 -32.2529 1011.01 -29.2148 1016.04 -26.3115 c 0
 1017.87 -25.2588 1015.51 -27.0098 1015.74 -26.7344 c 0
 1016.95 -25.293 1018.44 -22.6572 1019.91 -16.7793 c 0
 1027.57 13.8672 1067.01 46.2578 1107.94 55.5195 c 0
 1148.87 64.7822 1175.87 47.4268 1168.21 16.7793 c 0
 1162.71 -5.18848 1151.26 -28.3027 1132.52 -50.5781 c 0
 1112.07 -74.8799 1086.02 -94.249 1062.95 -107.566 c 0
 1035.73 -123.284 1001.49 -137.136 963.439 -145.564 c 0
 932.168 -152.49 902.596 -155.198 874.633 -155.198 c 0
 644.979 -155.198 460.779 -58 252.391 -57.999 c 0
 215.428 -57.999 200.992 -32.0156 220.166 0.000976562 c 0
 239.342 32.0166 284.902 58.001 321.865 58 c 0
 551.52 58 735.717 -39.1982 944.107 -39.1982 c 0
EndSplineSet
Fore
1016 -26 m 1
 1018 -21 1034 39 1108 56 c 0
 1149 65 1176 47 1168 17 c 0
 1145 -76 1024 -155 875 -155 c 0
 647 -155 464 -60 259 -58 c 2
 252 -58 l 2
 215 -58 201 -32 220 0 c 0
 226 9 l 0
 248 37 288 58 322 58 c 0
 501 58 721 122 819 178 c 0
 976 269 968 400 929 468 c 0
 883 546 781 589 667 589 c 0
 570 589 482 564 422 530 c 0
 327 475 287.146 374.084 327 305 c 0
 358.114 251.066 434 219 522 219 c 0
 582 219 642 223 703 229 c 0
 742.016 232.838 762 211 748 179 c 0
 734 147 690.991 118.089 651 114 c 0
 583.985 107.148 518 103 452 103 c 0
 290 103 124 187 168 363 c 0
 218 562 469 705 737 705 c 0
 951 705 1149 582 1094 360 c 0
 1050 186 857 68 651 7 c 1
 748 -16 843 -39 944 -39 c 0
 987 -39 1010 -30 1016 -26 c 1
EndSplineSet
EndChar
StartChar: R
Encoding: 82 82 19
Width: 1336
Flags: HMW
Back
382.845 316.457 m 0
 406.714 411.934 417.551 507.354 414.882 599.843 c 0
 414.069 627.993 447.228 663.263 488.896 678.57 c 0
 530.563 693.877 565.04 683.454 565.852 655.303 c 0
 568.713 556.143 557.137 453.528 531.266 350.045 c 0
 505.395 246.562 465.473 143.164 412.208 42.4453 c 0
 395.293 10.4619 350.652 -17.0723 312.564 -19.0137 c 0
 274.476 -20.9551 257.291 3.42773 274.206 35.4121 c 0
 322.294 126.343 358.976 220.979 382.845 316.457 c 0
229.458 541.41 m 0
 227.867 540.492 214.899 534.225 207.722 505.514 c 0
 200.053 474.841 160.583 442.424 119.619 433.153 c 0
 78.6553 423.884 51.6328 441.254 59.3008 471.927 c 0
 65.8154 497.986 87.8828 568.104 182.506 622.734 c 0
 198.825 632.156 215.254 639.868 231.294 646.242 c 0
 336.812 688.17 471.547 685.622 525.134 685.622 c 0
 562.128 685.622 576.576 659.616 557.385 627.573 c 0
 538.194 595.529 492.595 569.523 455.601 569.523 c 0
 353.511 569.523 282.644 563.382 240.853 546.776 c 0
 235.651 544.71 231.947 542.848 229.458 541.41 c 0
903.835 427.509 m 0
 912.277 432.383 924.374 440.2 933.533 462.364 c 0
 934.85 465.55 936.607 469.854 938.67 478.105 c 0
 941.747 490.411 942.325 504.079 935.437 516.012 c 0
 911.027 558.289 818.833 569.523 594.521 569.523 c 2
 455.6 569.523 l 2
 418.606 569.523 404.157 595.529 423.349 627.573 c 0
 442.54 659.616 488.14 685.622 525.134 685.622 c 2
 664.054 685.622 l 2
 779.955 685.622 1022.95 695.871 1078.95 598.868 c 0
 1094.86 571.306 1094.17 540.019 1087.09 511.693 c 0
 1084.64 501.897 1081.58 492.101 1076.91 480.8 c 0
 1054.98 427.73 1011.94 381.491 950.787 346.185 c 0
 935.694 337.472 938.209 339.206 935.027 337.554 c 0
 819.719 277.685 676.56 274.691 604.161 274.691 c 0
 567.168 274.691 552.719 300.698 571.91 332.741 c 0
 591.102 364.784 636.701 390.79 673.695 390.79 c 0
 783.274 390.79 859.903 404.579 899.515 425.146 c 0
 899.812 425.3 843.465 392.654 903.835 427.509 c 0
1235.03 58.377 m 0
 1146.75 7.4082 1050.55 -19.1201 965.2 -19.1201 c 0
 944.218 -19.1201 931.02 -15.4746 923.601 -13.3457 c 0
 799.836 22.1572 703.104 247.139 611.929 273.294 c 0
 607.66 274.519 604.701 274.691 604.161 274.691 c 0
 567.167 274.691 552.719 300.698 571.91 332.741 c 0
 591.102 364.784 636.701 390.79 673.695 390.79 c 0
 689.785 390.79 703.274 388.465 715.295 385.016 c 0
 839.06 349.513 935.791 124.531 1026.97 98.376 c 0
 1031.24 97.1514 1034.19 96.9785 1034.73 96.9785 c 0
 1111.39 96.9785 1168.21 128.233 1188.08 139.7 c 0
 1189 140.235 1191.77 141.86 1192.69 142.409 c 0
 1231.93 165.879 1275.16 167.22 1289.19 145.403 c 0
 1303.22 123.588 1282.76 86.834 1243.52 63.3643 c 0
 1241.83 62.3545 1236.73 59.3613 1235.03 58.377 c 0
EndSplineSet
Fore
832 300 m 1
 894.543 231.376 980.061 97 1035 97 c 0
 1098 97 1152 118 1193 142 c 0
 1232 166 1275 167 1289 145 c 0
 1303 124 1283 87 1244 63 c 0
 1152 9 1052 -19 965 -19 c 0
 810 -19 716 244 612 273 c 0
 608 275 605 275 604 275 c 0
 567 275 553 301 572 333 c 0
 591 365 637 391 674 391 c 0
 778.235 391 853.206 403.803 894.542 422.412 c 2
 904 428 l 2
 938 447 948 495 935 516 c 0
 911 558 819 570 595 570 c 2
 565 570 l 1
 554 366 486 182 412 42 c 0
 395 10 351 -17 313 -19 c 0
 274 -21 257.116 2.93838 274 35 c 0
 373 223 415 408 415 569 c 1
 226.201 564.558 216.549 539.127 208 506 c 0
 200 475 161 442 120 433 c 0
 79 424 52 441 59 472 c 0
 80 554 148.034 612.914 231 646 c 0
 336.044 687.891 470 686 524 686 c 2
 664 686 l 2
 780 686 1023 696 1079 599 c 0
 1089 581 1102.97 544.01 1077 481 c 0
 1055.98 430.008 999 343 832 300 c 1
EndSplineSet
EndChar
StartChar: S
Encoding: 83 83 20
Width: 940
Flags: HMW
Fore
761 532 m 0
 765 551 755 573 731 577 c 0
 683 585 634 589 583 589 c 0
 504 589 455 577 435 565 c 0
 420 556 410.113 519.066 426 492 c 0
 451.179 449.105 526 435 571 431 c 0
 760.843 414.125 824 359 848 318 c 0
 885 254 867 126 729 48 c 0
 672 16 586 -19 392 -19 c 0
 293 -19 204 3 130 45 c 0
 37 96 62 214 164 273 c 0
 172 277 208 298 250 298 c 0
 287 298 302 272 283 240 c 0
 270 219 247 201 222 191 c 1
 222 184.864 226.49 162.611 250 149 c 0
 313 114 386 97 461 97 c 0
 573 97 646 110 682 130 c 0
 712 146 723.984 200.99 704 235 c 0
 676.978 280.987 596 307 489 316 c 0
 198.12 340.467 224 552 388 647 c 0
 473 696 574 705 653 705 c 0
 848 705 882.969 671.982 901 641 c 0
 921.964 604.979 911 574 909 566 c 0
 902 535 862 502 821 493 c 0
 780 484 754 501 761 532 c 0
EndSplineSet
EndChar
StartChar: T
Encoding: 84 84 21
Width: 908
Flags: HMW
Back
466.764 159.627 m 2
 561.961 540.416 l 2
 569.802 571.779 612.574 607.405 657.434 619.938 c 0
 702.293 632.47 732.338 617.187 724.496 585.822 c 2
 629.299 205.033 l 2
 612.042 136.003 583.612 66.7529 544.206 -0.631836 c 0
 524.568 -34.2129 475.283 -64.4033 434.195 -68.0215 c 0
 393.107 -71.6396 375.698 -47.3223 395.336 -13.7422 c 0
 427.382 41.0566 451.81 99.8076 466.764 159.627 c 2
1150.62 618.094 m 1
 1150.62 618.094 1153 613.969 1135.6 603.921 c 0
 1109.86 589.063 1085.82 581.037 1065.97 575.935 c 0
 1041.55 569.656 1003.37 563.344 949.394 563.344 c 2
 323.618 563.344 l 2
 315.001 563.344 308.228 562.626 305.298 562.283 c 0
 284.698 559.869 270.673 554.076 263.057 549.68 c 0
 255.226 545.158 245.519 537.343 235.903 520.939 c 0
 216.218 487.354 166.912 457.193 125.847 453.614 c 0
 84.7822 450.036 67.4316 474.389 87.1172 507.974 c 0
 113.086 552.276 156.013 596.507 216.019 631.151 c 0
 269.141 661.821 323.414 677.821 370.714 683.362 c 0
 378.896 684.32 393.075 685.717 410.309 685.717 c 2
 1036.08 685.717 l 2
 1063.77 685.717 1086.43 687.59 1099.9 691.052 c 0
 1103.66 692.019 1097.52 690.565 1088.56 685.394 c 1
 1088.56 685.394 1086.18 689.519 1103.58 699.565 c 1
 1104.84 710.325 1119.07 723.557 1135.34 729.101 c 0
 1151.61 734.645 1163.79 730.411 1162.53 719.651 c 1
 1162.53 719.651 l 0
 1203.66 723.334 1221.16 699.074 1201.6 665.501 c 0
 1182.04 631.927 1132.79 601.69 1091.66 598.008 c 0
 1091.66 598.008 l 1
 1092.92 608.768 1107.16 621.999 1123.43 627.543 c 0
 1139.7 633.087 1151.88 628.854 1150.62 618.094 c 1
EndSplineSet
Fore
1210 691 m 0
 1210 665 1178 635 1151 618 c 1
 1151 618 1153 614 1136 604 c 0
 1112 590 1061 563 949 563 c 2
 719 563 l 1
 629 205 l 2
 611.674 136.081 583.927 67.0426 544 -1 c 0
 519.956 -41.9743 461 -68 426 -68 c 0
 401 -68 387 -57 387 -39 c 0
 387 -13 437 40 467 160 c 2
 562 540 l 2
 564 548 568 556 573 563 c 1
 324 563 l 2
 274 563 251.111 545.933 236 521 c 0
 216 488 165 454 117 454 c 0
 93 454 79 465 79 482 c 0
 79 531 222 686 410 686 c 2
 1036 686 l 2
 1058 686 1076 687 1090 689 c 1
 1091 691 1095 695 1104 700 c 1
 1106 717 1134 731 1150 731 c 0
 1158 731 1164 728 1163 720 c 1
 1170 720 l 2
 1195 720 1210 709 1210 691 c 0
EndSplineSet
EndChar
StartChar: U
Encoding: 85 85 22
Width: 948
Flags: HMW
Back
430.721 60.667 m 0
 355.733 17.373 268.928 -19.1201 192.923 -19.1201 c 0
 165.792 -19.1201 93.9629 -14.5693 53.8975 54.8262 c 0
 27.6162 100.349 18.8701 169.651 38.4004 247.771 c 0
 65.3516 355.58 151.526 506.691 157.189 564.482 c 0
 157.341 566.026 159.31 569.979 156.885 574.179 c 1
 156.857 574.205 164.551 569.918 164.549 569.918 c 0
 164.547 569.918 178.767 569.523 168.597 569.523 c 0
 121.46 569.523 85.4102 551.938 77.0645 547.864 c 0
 36.1699 527.902 -3.53906 532.046 -11.5723 557.111 c 0
 -19.6045 582.178 7.06445 618.722 47.959 638.684 c 0
 118.94 673.331 185.346 685.622 238.129 685.622 c 0
 242.648 685.622 255.594 684.442 259.551 683.657 c 0
 281.197 679.363 280.104 676.022 300.398 657.036 c 1
 311.424 637.939 308.196 614.468 307.826 610.694 c 0
 299.775 528.527 212.932 385.806 186.82 281.359 c 0
 172.297 223.265 177.897 171.481 197.411 137.683 c 0
 207.321 120.519 226.687 96.9785 262.456 96.9785 c 0
 281.327 96.9785 317.483 103.722 383.769 141.99 c 0
 564.001 246.047 782.014 478.421 815.104 610.779 c 0
 822.771 641.452 862.241 673.87 903.205 683.14 c 0
 944.17 692.41 971.192 675.039 963.524 644.366 c 0
 916.599 456.665 644.52 184.103 430.721 60.667 c 0
813.197 204.13 m 0
 804.591 169.706 800.224 135.189 800.263 101.536 c 0
 800.267 98.2441 801.062 95.417 802.354 93.1768 c 0
 804.578 89.3262 806.518 88.4814 808.466 87.7471 c 0
 810.526 86.9697 806.775 89.1094 795.644 83.4932 c 1
 839.679 105.71 l 2
 880.377 126.243 920.689 122.942 929.662 98.3428 c 0
 938.634 73.7432 912.886 37.1133 872.188 16.5801 c 2
 828.152 -5.63672 l 2
 774.775 -32.5664 727.012 -32.5693 698.075 -21.6533 c 0
 680.226 -14.9199 667.11 -4.00293 658.842 10.3193 c 0
 652.684 20.9844 649.281 33.6113 649.265 47.9932 c 0
 649.219 87.7637 654.355 128.856 664.776 170.543 c 0
 702.363 320.892 753.636 471.103 818.062 619.388 c 0
 831.846 651.11 874.953 680.523 914.283 685.042 c 0
 953.613 689.561 974.348 667.48 960.564 635.758 c 0
 898.805 493.614 849.442 349.111 813.197 204.13 c 0
EndSplineSet
Fore
813 204 m 0
 799 148 799 99 802 93 c 1
 806 89 l 1
 840 106 l 2
 880 126 921 123 930 98 c 0
 939 74 913 37 872 17 c 2
 828 -6 l 2
 733 -54 649 -22 649 48 c 0
 649 120.089 664.809 174.832 688 256 c 1
 527 105 332 -19 193 -19 c 0
 166 -19 94.1383 -14.9206 54 55 c 0
 -39.6773 218.185 147 464 157 564 c 0
 157 565 158 567 158 569 c 1
 116 567 85.0388 551.921 77 548 c 0
 36 528 -4 532 -12 557 c 0
 -20 582 7 619 48 639 c 0
 119 673 185 686 238 686 c 0
 278 686 283 673 300 657 c 1
 355 562 111 287 197 138 c 0
 207 121 227 97 262 97 c 0
 381 97 677 346 782 533 c 2
 818 619 l 2
 838.107 663.854 896.972 684 908 684 c 2
 910 685 912 685 914 685 c 0
 918 685 921 686 924 686 c 0
 949 686 965 673 965 655 c 0
 965 640.181 947.644 590.067 924 549 c 1
 879 435 842 320 813 204 c 0
EndSplineSet
EndChar
StartChar: V
Encoding: 86 86 23
Width: 1008
Flags: HMW
Back
257.498 468.863 m 0
 214.211 543.84 162.976 575.071 114.561 575.071 c 0
 79.3828 575.071 62.6826 599.89 77.2842 630.469 c 0
 91.8857 661.048 132.286 685.866 167.464 685.866 c 0
 280.459 685.866 346.409 614.386 387.194 543.742 c 0
 478.202 386.108 497.897 129.42 501.099 40.4902 c 1
 463.066 20.0459 432.852 6.03027 416.356 0 c 1
 364.624 -28.1816 l 1
 363.722 -26.1934 363.478 -24.79 363.97 -24.2979 c 1
 362.129 -26.1387 367.986 277.487 257.498 468.863 c 0
897.775 458.905 m 0
 899.433 463.459 900.484 467.01 901.355 470.494 c 0
 901.355 470.497 901.044 469.105 901.08 468.53 c 1
 900.388 479.486 885.344 502.447 847.532 516.209 c 0
 829.38 522.816 807.777 526.504 784.938 526.504 c 0
 757.925 526.504 744.442 562.12 754.844 606.004 c 0
 765.245 649.889 795.611 685.505 822.625 685.505 c 0
 851.835 685.505 879.443 680.947 904.213 671.933 c 0
 986.681 641.917 1003.13 576.857 1005.57 538.222 c 0
 1007.18 512.771 1003.72 488.363 998.414 467.143 c 0
 995.382 455.012 991.788 442.635 986.021 426.787 c 0
 877.224 127.881 422.832 -72.416 409.769 -77.1914 c 0
 381.051 -87.6904 360.695 -61.6289 364.333 -19.0186 c 0
 367.97 23.5908 394.229 66.6934 422.946 77.1924 c 0
 551.609 124.229 848.142 322.542 897.775 458.905 c 0
EndSplineSet
Fore
257 469 m 0
 213.865 543.922 163 575 115 575 c 0
 79 575 63 600 77 630 c 0
 92 661 132 686 167 686 c 0
 280 686 346 614 387 544 c 0
 460 417 487 227 497 111 c 1
 641 187 856 345 898 459 c 0
 899 463 900 466 901 469 c 1
 899 484 868 527 785 527 c 0
 758 527 744 562 755 606 c 0
 765 650 796 686 823 686 c 0
 956 686 1030.67 597.084 998 467 c 0
 919.197 153.202 441 -66 410 -77 c 0
 383 -87 363 -65 364 -26 c 2
 364 -24 l 1
 362 -26 367.654 276.801 257 469 c 0
EndSplineSet
EndChar
StartChar: W
Encoding: 87 87 24
Width: 1553
Flags: HMW
Back
229.603 492.084 m 0
 213.803 519.45 176.428 575.071 114.561 575.071 c 0
 79.3818 575.071 62.6826 599.89 77.2842 630.469 c 0
 91.8857 661.048 132.286 685.866 167.464 685.866 c 0
 266.908 685.866 324.119 627.896 359.299 566.963 c 0
 423.153 456.362 441.95 279.762 446.036 153.958 c 1
 515.42 219.168 580.912 287.819 642.012 359.311 c 0
 701.523 428.945 756.67 501.039 807.124 574.996 c 1
 839.395 574.996 l 1
 828.712 591.697 l 2
 814.521 613.539 831.689 648.635 867.035 670.037 c 0
 902.381 691.438 942.584 691.082 956.775 669.24 c 0
 970.727 647.768 984.123 625.908 996.959 603.676 c 0
 1044.2 521.847 1083.84 434.976 1115.53 343.79 c 0
 1146.64 254.255 1169.99 160.868 1185.38 64.3965 c 1
 1150.04 33.1641 1121.53 10.4053 1107 0 c 2
 1054.28 -28.7236 l 1
 1054.13 -29.3125 l 1
 1039.73 77.6279 1015.3 180.864 981.122 279.221 c 0
 953.657 358.253 919.982 433.887 880.374 505.582 c 1
 820.489 415.749 754.969 329.252 684.412 246.693 c 0
 588.103 134.002 482.875 29.1836 370.324 -66.4941 c 0
 342.028 -90.5479 314.107 -80.2803 308.001 -43.5752 c 0
 307.2 -38.7627 306.814 -33.7334 306.812 -28.5723 c 1
 306.618 -28.6777 l 1
 306.618 -27.1475 306.717 -25.5781 306.908 -23.9707 c 0
 306.96 -22.748 307.032 -21.5195 307.124 -20.2871 c 0
 306.159 -3.54785 329.052 319.828 229.603 492.084 c 0
1440.18 455.063 m 0
 1442.27 460.825 1443.83 465.952 1444.97 470.495 c 0
 1446.51 476.675 1441.11 492.311 1427.32 504.792 c 0
 1420.41 511.047 1411.44 516.552 1400.88 520.396 c 0
 1390.17 524.294 1377.83 526.504 1364.38 526.504 c 0
 1337.37 526.504 1323.88 562.12 1334.29 606.004 c 0
 1344.69 649.889 1375.05 685.505 1402.07 685.505 c 0
 1422.05 685.505 1440.65 682.273 1457.57 676.118 c 0
 1474.24 670.048 1489.29 661.153 1502.38 649.318 c 0
 1522.71 630.92 1568.92 574.697 1542.03 467.143 c 0
 1538.26 452.059 1533.64 437.285 1528.42 422.945 c 0
 1445.6 195.396 1160.88 -36.1348 1113.32 -70.207 c 0
 1084.59 -90.7969 1058.44 -76.0537 1054.95 -37.2998 c 0
 1051.46 1.4541 1071.95 49.6172 1100.68 70.207 c 0
 1178.95 126.288 1392.77 324.821 1440.18 455.063 c 0
EndSplineSet
Fore
1331 578 m 0
 1331 631 1370 686 1402 686 c 0
 1488 686 1549 626 1549 530 c 0
 1549 290 1188 -17 1113 -70 c 0
 1104 -76 1096 -80 1088 -80 c 0
 1056 -80 1055 -37 1054 -29 c 0
 1034 121 987 312 880 506 c 1
 737 291 564 98 370 -66 c 0
 360 -75 349 -79 340 -79 c 0
 321 -79 307 -60 307 -29 c 2
 307 -20 l 2
 307 -15 309 19 309 68 c 0
 309 378 231 575 115 575 c 0
 88 575 72 589 72 609 c 0
 72 646 123 686 167 686 c 0
 267 686 324 628 359 567 c 0
 423 456 442 280 446 154 c 1
 580 280 703 422 807 575 c 1
 839 575 l 1
 829 592 l 2
 826 597 824 603 824 610 c 0
 824 643 870 686 919 686 c 0
 936 686 950 680 957 669 c 0
 1047 531 1129 351 1173 131 c 1
 1376 311 1445 440 1445 472 c 0
 1445 485 1427 527 1364 527 c 0
 1343 527 1331 548 1331 578 c 0
EndSplineSet
EndChar
StartChar: X
Encoding: 88 88 25
Width: 1086
Flags: HMW
Back
781.349 0.319336 m 0
 751.529 1.26172 688.891 1.87402 644.83 78.1895 c 0
 634.191 96.6172 626.521 116.827 621.213 137.712 c 2
 534.435 479.238 l 2
 530.222 495.817 524.145 511.528 516.427 524.896 c 0
 512.813 531.153 492.18 566.156 458.548 569.306 c 0
 458.517 569.309 490.979 569.523 453.889 569.523 c 0
 438.979 569.523 400.602 569.403 386.547 567.603 c 0
 384.492 567.34 398.738 570.211 412.411 578.105 c 1
 412.411 578.105 412.737 577.542 400.1 570.245 c 0
 398.978 569.599 395.586 567.702 394.448 567.087 c 0
 354.253 545.343 312.696 546.798 301.689 570.334 c 0
 290.683 593.87 314.372 630.62 354.567 652.363 c 0
 354.567 652.364 350.413 649.991 353.147 651.569 c 2
 353.147 651.569 352.822 652.134 365.46 659.43 c 0
 388.417 672.684 411.276 679.327 433.999 682.239 c 0
 456.974 685.183 489.366 685.622 523.423 685.622 c 0
 532.695 685.622 537.895 685.126 541.368 684.801 c 0
 606.522 678.7 641.282 640.069 659.94 607.752 c 0
 670.58 589.324 678.251 569.114 683.558 548.229 c 2
 770.336 206.703 l 2
 774.549 190.124 780.627 174.413 788.344 161.047 c 0
 810.143 123.289 832.384 116.923 850.882 116.418 c 0
 893.232 115.262 915.652 122.132 919.59 123.324 c 0
 928.201 125.93 941.123 148.427 986.065 130.681 c 0
 1014.14 119.597 1011.92 86.2002 981.118 56.1357 c 0
 950.314 26.0703 902.532 10.666 874.46 21.75 c 0
 874.46 21.75 910.513 17.2285 908.248 16.543 c 0
 878.22 7.45508 836.525 -1.42383 781.349 0.319336 c 0
105.136 39.4512 m 0
 98.7266 50.5527 95.4033 65.8691 100.459 86.0938 c 0
 105.672 106.946 119.087 126.766 133.234 142.693 c 0
 165.411 178.918 207.957 205.545 243.198 225.891 c 0
 424.789 330.731 784.664 450.83 941.492 541.374 c 0
 957.866 550.827 979.328 564.753 985.294 571.469 c 0
 985.299 571.475 983.441 568.977 982.763 566.261 c 0
 982.601 565.611 982.85 563.882 982.993 563.633 c 1
 981.854 565.606 974.405 567.834 966.17 568.81 c 0
 963.68 569.104 958.903 569.523 953.153 569.523 c 0
 916.16 569.523 901.712 595.53 920.903 627.573 c 0
 940.095 659.616 985.694 685.622 1022.69 685.622 c 0
 1034.85 685.622 1043.66 684.974 1052.11 683.974 c 0
 1108.55 677.292 1123.1 652.394 1126.51 646.489 c 0
 1132.92 635.389 1136.24 620.072 1131.18 599.848 c 0
 1125.97 578.994 1112.55 559.176 1098.41 543.248 c 0
 1066.23 507.022 1023.68 480.396 988.444 460.05 c 0
 806.854 355.21 446.979 235.111 290.149 144.566 c 0
 273.776 135.113 252.313 121.188 246.349 114.472 c 0
 246.343 114.466 248.2 116.964 248.88 119.681 c 0
 249.042 120.329 248.792 122.06 248.648 122.308 c 1
 248.925 121.829 253.135 118.593 265.473 117.132 c 0
 267.962 116.837 272.739 116.417 278.488 116.417 c 0
 315.482 116.417 329.931 90.4111 310.738 58.3682 c 0
 291.547 26.3242 245.947 0.318359 208.954 0.319336 c 0
 196.789 0.319336 187.979 0.966797 179.528 1.96777 c 0
 123.095 8.64844 108.544 33.5469 105.136 39.4512 c 0
EndSplineSet
Fore
1006 103 m 0
 1006 42 892 0 795 0 c 0
 750 0 656 1 621 138 c 2
 585 279 l 1
 450 223 312 165 255 122 c 1
 261 120 271 116 278 116 c 0
 304 116 319 104 319 85 c 0
 319 77 316 68 311 58 c 0
 292 26 299 0 209 0 c 0
 128 0 98 30 98 66 c 0
 98 91 112 119 133 143 c 0
 202 220 381 298 562 373 c 1
 534 479 l 2
 523 524 496 566 459 569 c 2
 448 569 l 2
 433 569 411 569 397 568 c 1
 366 552 345 552 340 552 c 0
 319 552 299 561 299 583 c 0
 299 624 369.03 673.765 434 682 c 0
 457.011 684.917 489 686 523 686 c 0
 622 686 666 616 684 548 c 2
 712 435 l 1
 821 480 934 530 979 566 c 1
 973 568 962 570 953 570 c 0
 927 570 912 582 912 601 c 0
 912 641 974 686 1023 686 c 0
 1104 686 1134 656 1134 620 c 0
 1134 509 891 406 736 341 c 1
 770 207 l 2
 787 140 817 116 860 116 c 0
 943 116 920 137 955 137 c 0
 970 137 1006 131 1006 103 c 0
EndSplineSet
EndChar
StartChar: Y
Encoding: 89 89 26
Width: 1007
Flags: HMW
Back
364.477 442.529 m 0
 311.072 535.03 249.53 575.071 190.313 575.071 c 0
 181.4 575.071 175.547 571.812 173.565 570.668 c 0
 171.783 569.64 169.865 568.34 167.713 566.555 c 0
 136.567 540.712 93.4971 533.005 71.5732 549.353 c 0
 49.6494 565.699 57.1338 599.941 88.2793 625.784 c 0
 100.091 635.585 112.928 644.541 126.42 652.33 c 0
 167.268 675.912 207.921 685.866 243.217 685.866 c 0
 309.495 685.866 409.7 663.723 494.173 517.408 c 0
 575.557 376.445 610.921 173.068 623.837 69.5186 c 1
 578.511 36.4668 533.101 7.3457 490.768 -16.9268 c 1
 485.399 49.7314 461.455 274.553 364.477 442.529 c 0
251.075 -18.0674 m 0
 268.195 -24.2998 287.514 -27.6992 308.249 -27.6992 c 0
 387.914 -27.6982 806.593 207.601 896.784 455.396 c 0
 900.34 465.167 903.29 474.756 905.659 484.232 c 0
 908.712 496.445 897.818 510.051 889.239 517.68 c 0
 880.834 525.152 869.166 532.09 855.239 537.159 c 0
 838.511 543.248 818.572 546.697 797.36 546.697 c 0
 770.477 546.697 754.797 577.832 762.361 616.196 c 0
 769.927 654.56 797.886 685.695 824.771 685.695 c 0
 853.244 685.695 880.162 681.224 904.456 672.381 c 0
 924.699 665.013 943.151 654.65 959.081 640.487 c 0
 1005.12 599.551 1016.51 536.904 1000.73 473.788 c 0
 996.443 456.637 991.215 439.743 985.199 423.215 c 0
 863.302 88.3066 388.367 -166.697 280.84 -166.697 c 0
 252.688 -166.697 226.147 -162.131 201.857 -153.29 c 0
 161.828 -138.72 115.675 -108.182 88.751 -46.6592 c 0
 76.3086 -18.2275 86.5029 25.752 111.507 51.5078 c 0
 136.511 77.2637 166.902 75.0918 179.345 46.6602 c 0
 183.417 37.3545 200.59 0.307617 251.075 -18.0674 c 0
EndSplineSet
Fore
243 686 m 0
 466.2 686 569.484 411.152 615 133 c 1
 745 228 874 356 906 484 c 0
 911 504 875 547 797 547 c 0
 770 547 755 578 762 616 c 0
 770 655 798 686 825 686 c 0
 959 686 1030.88 593.03 1001 474 c 0
 910.644 114.089 394 -167 281 -167 c 0
 181 -167 117.288 -110.873 89 -47 c 0
 76.1309 -17.942 87 26 112 52 c 0
 137 77 167 75 179 47 c 0
 193 16 231 -28 308 -28 c 0
 336 -28 403 0 484 47 c 1
 454 283 355 575 190 575 c 0
 188 575 178 575 168 567 c 0
 137 541 93 533 72 549 c 0
 50 566 57 600 88 626 c 0
 125 656 181 686 243 686 c 0
EndSplineSet
EndChar
StartChar: Z
Encoding: 90 90 27
Width: 1069
Flags: HMW
Back
854.54 566.147 m 2
 520.017 563.532 l 2
 480.959 563.532 452.364 558.649 434.555 553.922 c 0
 421.263 550.395 413.547 546.579 412.363 545.896 c 0
 412.354 545.891 412.891 546.314 412.961 546.398 c 1
 412.322 545.634 408.312 540.426 405.6 529.574 c 0
 397.782 498.307 355.142 462.789 310.419 450.296 c 0
 265.696 437.802 235.744 453.039 243.561 484.307 c 0
 249.675 508.765 261.934 534.16 283.307 559.762 c 0
 312.45 594.672 347.312 616.637 365.469 627.12 c 0
 393.4 643.246 427.701 657.9 466.333 668.154 c 0
 495.477 675.889 542.179 685.529 605.808 685.529 c 2
 940.332 688.145 l 2
 969.85 688.145 999.375 687.221 1028.24 685.382 c 0
 1065.11 683.032 1073.53 653.864 1047.04 620.274 c 0
 1020.55 586.685 969.129 561.33 932.258 563.68 c 0
 906.416 565.326 880.705 566.147 854.54 566.147 c 2
620.532 403.903 m 0
 727.475 478.367 830.817 559.25 929.816 646.08 c 0
 965.856 677.691 1017.7 693.691 1045.54 681.797 c 0
 1073.38 669.9 1066.72 634.592 1030.68 602.98 c 0
 923.162 508.679 810.182 420.192 692.646 338.353 c 0
 530.819 225.673 364.937 119.751 195.702 21.0615 c 0
 152.163 -4.3291 105.992 -6.8584 92.6426 15.4141 c 0
 79.292 37.6875 103.793 76.3701 147.332 101.761 c 0
 308.299 195.629 466.214 296.451 620.532 403.903 c 0
334.196 119.98 m 2
 815.693 122.597 l 2
 828.739 122.597 836.742 125.754 840.81 128.103 c 0
 845.377 130.74 858.559 140.542 869.262 161.51 c 0
 872.868 168.575 876.064 176.723 878.308 185.695 c 0
 886.148 217.059 928.92 252.685 973.779 265.217 c 0
 1018.64 277.749 1048.68 262.465 1040.84 231.102 c 0
 1036.78 214.842 1030.63 198.547 1022.35 182.315 c 0
 997.756 134.142 951.86 83.5889 887.848 46.6309 c 0
 867.118 34.6621 804.894 0.225586 729.443 0.225586 c 2
 247.946 -2.39062 l 2
 206.695 -2.39062 165.487 -1.49414 124.79 0.297852 c 0
 87.2588 1.9502 77.7324 30.6699 103.526 64.4043 c 0
 129.319 98.1387 180.713 124.176 218.244 122.524 c 0
 256.768 120.828 295.281 119.98 334.196 119.98 c 2
762.39 370.119 m 0
 762.388 370.123 775.339 355.678 782.114 357.391 c 1
 753.923 350.267 693.1 319.628 641.253 319.628 c 2
 440.875 319.628 l 2
 409.026 319.628 390.048 342.7 398.514 371.129 c 0
 406.979 399.557 439.698 422.629 471.548 422.629 c 2
 671.925 422.629 l 2
 687.743 422.629 737.871 445.823 777.664 455.879 c 0
 804.643 462.696 852.221 468.148 872.211 433.525 c 0
 873.736 430.883 877.133 422.191 877.852 419.165 c 0
 881.555 403.58 880.25 397.842 875.844 375.939 c 0
 870.146 347.616 836.863 323.503 804.682 322.291 c 0
 772.501 321.08 752.49 343.162 759.247 371.55 c 0
 760.061 374.969 760.566 374.511 760.51 374.751 c 0
 760.508 374.758 762.498 369.933 762.39 370.119 c 0
EndSplineSet
Fore
248 -2 m 2
 132 -2 89 -5 89 29 c 0
 89 55 123 88 147 102 c 0
 282 180 398 253 498 320 c 1
 441 320 l 2
 414 320 397 336 397 357 c 0
 397 386 428 423 472 423 c 2
 647 423 l 1
 721 476 783 524 835 566 c 1
 520 564 l 2
 470 563 427 554 413 546 c 1
 409 540 396 474 310 450 c 0
 300 447 290 446 282 446 c 0
 258 446 243 456 243 474 c 0
 243 477 243 481 244 484 c 0
 271 594 415 684 606 686 c 2
 940 688 l 2
 968 688 996 687 1023 686 c 0
 1049 686 1063 674 1063 657 c 0
 1063 641 1052 622 1031 603 c 0
 983 561 924 512 850 454 c 1
 874 443 879 421 879 403 c 0
 879 338 826 323 805 322 c 0
 785 322 769 330 762 343 c 1
 737 329 702 323 667 320 c 1
 580 259 478 192 361 120 c 1
 816 123 l 2
 854 123 872 159 878 186 c 0
 888 224 951 270 1003 270 c 0
 1027 270 1042 259 1042 241 c 0
 1042 238 1042 234 1041 231 c 0
 1010 108 861 1 729 0 c 2
 248 -2 l 2
EndSplineSet
EndChar
